<?xml version="1.0" encoding="UTF-8" standalone="no"?>
<svg
   xmlns:dc="http://purl.org/dc/elements/1.1/"
   xmlns:cc="http://creativecommons.org/ns#"
   xmlns:rdf="http://www.w3.org/1999/02/22-rdf-syntax-ns#"
   xmlns:svg="http://www.w3.org/2000/svg"
   xmlns="http://www.w3.org/2000/svg"
   xmlns:sodipodi="http://sodipodi.sourceforge.net/DTD/sodipodi-0.dtd"
   xmlns:inkscape="http://www.inkscape.org/namespaces/inkscape"
   width="70.894264"
   height="71.33036"
   version="1.1"
   id="svg70"
   sodipodi:docname="cont-ico.svg"
   inkscape:version="0.92.3 (2405546, 2018-03-11)">
  <metadata
     id="metadata74">
    <rdf:RDF>
      <cc:Work
         rdf:about="">
        <dc:format>image/svg+xml</dc:format>
        <dc:type
           rdf:resource="http://purl.org/dc/dcmitype/StillImage" />
        <dc:title></dc:title>
      </cc:Work>
    </rdf:RDF>
  </metadata>
  <sodipodi:namedview
     pagecolor="#ffffff"
     bordercolor="#666666"
     borderopacity="1"
     objecttolerance="10"
     gridtolerance="10"
     guidetolerance="10"
     inkscape:pageopacity="0"
     inkscape:pageshadow="2"
     inkscape:window-width="1920"
     inkscape:window-height="1017"
     id="namedview72"
     showgrid="false"
     inkscape:zoom="4.8735632"
     inkscape:cx="39.7304"
     inkscape:cy="22.743263"
     inkscape:window-x="-8"
     inkscape:window-y="-8"
     inkscape:window-maximized="1"
     inkscape:current-layer="svg70" />
  <defs
     id="defs46">
    <clipPath
       id="clip_0">
      <rect
         x="-483.76959"
         y="-1376.3728"
         width="1433.088"
         height="1690.8447"
         id="rect43"
         style="clip-rule:evenodd" />
    </clipPath>
  </defs>
  <g
     clip-path="url(#clip_0)"
     id="g50"
     transform="translate(-46.548856,-34.290537)">
    <path
       transform="matrix(0.9952,0,0,0.9952,0.881317,0.752197)"
       d="m 84.2429,71.1098 c 0,-9.0802 7.3605,-16.4408 16.4411,-16.4408 9.08,0 16.44,7.3606 16.44,16.4408 0,9.0792 -7.36,16.4407 -16.44,16.4407 -9.0806,0 -16.4411,-7.3615 -16.4411,-16.4407 z m 2.2375,-0.001 c 0,7.8451 6.359,14.2042 14.2036,14.2042 7.844,0 14.203,-6.3591 14.203,-14.2042 0,-7.8436 -6.359,-14.2022 -14.203,-14.2022 -7.8446,0 -14.2036,6.359 -14.2036,14.2022 z"
       id="path48"
       inkscape:connector-curvature="0"
       style="fill:#ffffff;fill-rule:evenodd;stroke:none" />
  </g>
  <defs
     id="defs55">
    <clipPath
       id="clip_1">
      <rect
         x="-483.76959"
         y="-1376.3728"
         width="1433.088"
         height="1690.8447"
         id="rect52"
         style="clip-rule:evenodd" />
    </clipPath>
  </defs>
  <g
     clip-path="url(#clip_1)"
     id="g59"
     transform="translate(-46.548856,-34.290537)">
    <path
       transform="matrix(0.9952,0,0,0.9952,0.881317,0.752197)"
       d="m 92.7079,87.1941 c 0.2519,1.8598 0.3849,3.7826 0.3849,5.7565 0,7.2484 -11.5682,11.1704 -23.0759,11.1394 -11.5082,-0.03 -22.809,-4.1101 -22.809,-11.238 0,-15.2274 7.6551,-27.4156 18.6971,-29.8838 -5.9267,-1.7858 -10.2451,-7.2846 -10.2451,-13.7936 0,-7.9563 6.4505,-14.4067 14.4068,-14.4067 7.9568,0 14.4068,6.4504 14.4068,14.4067 0,6.5071 -4.3155,12.0049 -10.2398,13.7922 3.2782,0.7321 6.2643,2.3275 8.849,4.5988 0.0788,-0.3922 0.1722,-0.7785 0.2757,-1.161 -1.8062,-1.5364 -3.7812,-2.7705 -5.8823,-3.6424 4.8053,-2.6258 8.0651,-7.7256 8.0651,-13.5876 0,-8.5463 -6.9282,-15.4745 -15.4745,-15.4745 -8.5468,0 -15.4745,6.9282 -15.4745,15.4745 0,5.862 3.2598,10.9618 8.0646,13.5876 -9.7281,4.0369 -16.769,15.8015 -16.769,29.6928 0,17.226 48.3578,17.226 48.3578,0 0,-1.5968 -0.0972,-3.1636 -0.2766,-4.6956 -0.4289,-0.1731 -0.8496,-0.3612 -1.2611,-0.5653 z"
       id="path57"
       inkscape:connector-curvature="0"
       style="fill:#ffffff;stroke:none" />
  </g>
  <defs
     id="defs64">
    <clipPath
       id="clip_2">
      <rect
         x="-483.76959"
         y="-1376.3728"
         width="1433.088"
         height="1690.8447"
         id="rect61"
         style="clip-rule:evenodd" />
    </clipPath>
  </defs>
  <g
     clip-path="url(#clip_2)"
     id="g68"
     transform="translate(-46.548856,-34.290537)">
    <path
       transform="matrix(0.9952,0,0,0.9952,0.881317,0.752197)"
       d="m 107.988,65.7745 c -0.032,-0.0382 -0.063,-0.0779 -0.1,-0.1122 l -1.824,-1.6771 c -0.475,-0.4352 -1.213,-0.4043 -1.648,0.0696 l -1.677,1.8251 c -0.436,0.4734 -0.405,1.2118 0.07,1.647 l 1.824,1.6766 c 0.04,0.0363 0.083,0.0638 0.126,0.0943 -0.671,0.8874 -1.464,1.8425 -2.352,2.8086 -0.888,0.9662 -1.772,1.8386 -2.6002,2.5814 -0.0329,-0.0401 -0.0652,-0.0808 -0.1044,-0.117 l -1.825,-1.6771 c -0.4735,-0.4357 -1.2119,-0.4043 -1.6471,0.0706 l -1.6766,1.8236 c -0.4357,0.4744 -0.4052,1.2128 0.0697,1.648 l 1.8245,1.6776 c 0.0377,0.0338 0.0793,0.0609 0.1204,0.0894 0.0218,0.0256 0.0382,0.0556 0.0619,0.0779 1.0914,1.0019 4.5368,-0.973 7.6958,-4.4112 3.16,-3.4383 4.836,-7.038 3.745,-8.04 -0.025,-0.0223 -0.056,-0.0353 -0.083,-0.0551 z"
       id="path66"
       inkscape:connector-curvature="0"
       style="fill:#ffffff;stroke:none" />
  </g>
</svg>
