<?xml version="1.0" encoding="UTF-8" standalone="no"?>
<!-- Created with Inkscape (http://www.inkscape.org/) -->

<svg
   xmlns:dc="http://purl.org/dc/elements/1.1/"
   xmlns:cc="http://creativecommons.org/ns#"
   xmlns:rdf="http://www.w3.org/1999/02/22-rdf-syntax-ns#"
   xmlns:svg="http://www.w3.org/2000/svg"
   xmlns="http://www.w3.org/2000/svg"
   xmlns:sodipodi="http://sodipodi.sourceforge.net/DTD/sodipodi-0.dtd"
   xmlns:inkscape="http://www.inkscape.org/namespaces/inkscape"
   width="20.637499mm"
   height="21.960417mm"
   viewBox="0 0 20.637499 21.960417"
   version="1.1"
   id="svg3761"
   inkscape:version="0.92.3 (2405546, 2018-03-11)"
   sodipodi:docname="guide-ico.svg">
  <defs
     id="defs3755">
    <clipPath
       id="clip_0">
      <rect
         style="clip-rule:evenodd"
         x="-312"
         y="-1151"
         width="1440"
         height="1699"
         id="rect3728" />
    </clipPath>
  </defs>
  <sodipodi:namedview
     id="base"
     pagecolor="#ffffff"
     bordercolor="#666666"
     borderopacity="1.0"
     inkscape:pageopacity="0.0"
     inkscape:pageshadow="2"
     inkscape:zoom="0.35"
     inkscape:cx="116.14286"
     inkscape:cy="-32.785733"
     inkscape:document-units="mm"
     inkscape:current-layer="layer1"
     showgrid="false"
     inkscape:window-width="1920"
     inkscape:window-height="1017"
     inkscape:window-x="-8"
     inkscape:window-y="-8"
     inkscape:window-maximized="1" />
  <metadata
     id="metadata3758">
    <rdf:RDF>
      <cc:Work
         rdf:about="">
        <dc:format>image/svg+xml</dc:format>
        <dc:type
           rdf:resource="http://purl.org/dc/dcmitype/StillImage" />
        <dc:title></dc:title>
      </cc:Work>
    </rdf:RDF>
  </metadata>
  <g
     inkscape:label="Layer 1"
     inkscape:groupmode="layer"
     id="layer1"
     transform="translate(-75.103869,-118.19836)">
    <g
       clip-path="url(#clip_0)"
       id="g3735"
       transform="matrix(0.26458333,0,0,0.26458333,71.981786,115.9494)">
      <path
         d="m 71.5,83.8 c -0.8,2.7 -3.3,4.7 -6.2,4.7 h -44 c -3.6,0 -6.5,-2.9 -6.5,-6.5 V 18 c 0,-3.6 2.9,-6.5 6.5,-6.5 h 44 c 3.6,0 6.5,2.9 6.5,6.5 v 28 c 0.5,0 1,-0.1 1.5,-0.1 0.5,0 1,0 1.5,0.1 V 18 c 0,-5.2 -4.3,-9.5 -9.5,-9.5 h -44 c -5.2,0 -9.5,4.3 -9.5,9.5 v 64 c 0,5.2 4.3,9.5 9.5,9.5 h 44 c 4.6,0 8.5,-3.3 9.3,-7.6 -0.4,0 -0.9,0.1 -1.3,0.1 -0.6,-0.1 -1.2,-0.1 -1.8,-0.2 z M 39.8,33.3 v -9 h 7 v 9 h 9 v 7 h -9 v 9 h -7 v -9 h -9 v -7 z m 33.5,48.1 c 9.1,0 16.5,-7.4 16.5,-16.5 0,-9.1 -7.4,-16.5 -16.5,-16.5 -9.1,0 -16.5,7.4 -16.5,16.5 0,9.1 7.4,16.5 16.5,16.5 z M 86.8,64.9 c 0,-7.4 -6.1,-13.5 -13.5,-13.5 -7.4,0 -13.5,6.1 -13.5,13.5 0,7.4 6.1,13.5 13.5,13.5 7.4,0 13.5,-6 13.5,-13.5 z m -62,-8.4 c -0.8,0 -1.5,0.7 -1.5,1.5 0,0.8 0.7,1.5 1.5,1.5 0.8,0 1.5,-0.7 1.5,-1.5 0,-0.8 -0.7,-1.5 -1.5,-1.5 z m 4,3 c -0.8,0 -1.5,-0.7 -1.5,-1.5 0,-0.8 0.6,-1.5 1.5,-1.5 h 27.4 c -0.5,1 -0.9,2 -1.2,3 z m 40.7,7.1 8,-8 c 0.6,-0.6 1.4,-0.5 2,0.1 0.6,0.6 0.6,1.5 0,2.1 l -8,8 H 75 c 0.8,0 1.5,0.7 1.5,1.5 0,0.8 -0.7,1.5 -1.5,1.5 h -7 c -0.4,0 -0.7,-0.2 -1,-0.4 L 66.8,71.2 C 66.6,71 66.5,70.7 66.5,70.4 v -7.2 c 0,-0.8 0.7,-1.5 1.5,-1.5 0.8,0 1.5,0.7 1.5,1.5 z M 23.3,65.3 c 0,-0.8 0.7,-1.5 1.5,-1.5 0.8,0 1.5,0.7 1.5,1.5 0,0.8 -0.7,1.5 -1.5,1.5 -0.8,0 -1.5,-0.7 -1.5,-1.5 z m 5.5,1.5 h 25.6 c -0.1,-0.6 -0.1,-1.3 -0.1,-1.9 0,-0.4 0,-0.7 0.1,-1.1 H 28.8 c -0.8,0 -1.5,0.7 -1.5,1.5 0,0.8 0.6,1.5 1.5,1.5 z m -5.5,5.9 c 0,-0.8 0.7,-1.5 1.5,-1.5 0.8,0 1.5,0.7 1.5,1.5 0,0.8 -0.7,1.5 -1.5,1.5 -0.8,0 -1.5,-0.7 -1.5,-1.5 z m 4,0 c 0,-0.8 0.7,-1.5 1.5,-1.5 h 26.6 c 0.3,1 0.8,2 1.3,3 H 28.8 c -0.8,0 -1.5,-0.7 -1.5,-1.5 z m -2.5,5.8 c -0.8,0 -1.5,0.7 -1.5,1.5 0,0.8 0.7,1.5 1.5,1.5 0.8,0 1.5,-0.7 1.5,-1.5 0,-0.8 -0.7,-1.5 -1.5,-1.5 z M 50.3,80 c 0,-0.8 -0.7,-1.5 -1.5,-1.5 h -20 c -0.8,0 -1.5,0.7 -1.5,1.5 0,0.8 0.7,1.5 1.5,1.5 h 20 c 0.8,0 1.5,-0.7 1.5,-1.5 z m 3,1.5 c -0.8,0 -1.5,-0.7 -1.5,-1.5 0,-0.8 0.7,-1.5 1.5,-1.5 0.8,0 1.5,0.7 1.5,1.5 0,0.8 -0.7,1.5 -1.5,1.5 z m 4,0 c 0.8,0 1.5,-0.7 1.5,-1.5 0,-0.8 -0.7,-1.5 -1.5,-1.5 -0.8,0 -1.5,0.7 -1.5,1.5 0,0.8 0.6,1.5 1.5,1.5 z m 5.3,-0.8 c -0.8,-0.5 -1.6,-1.2 -2.3,-1.8 -0.3,0.3 -0.6,0.7 -0.6,1.2 0,0.8 0.7,1.5 1.5,1.5 0.7,-0.1 1.2,-0.4 1.4,-0.9 z"
         id="path3733"
         inkscape:connector-curvature="0"
         style="fill:#0bac8b;fill-rule:evenodd;stroke:none" />
    </g>
  </g>
</svg>
