<?xml version="1.0" encoding="UTF-8" standalone="no"?>
<svg
   xmlns:dc="http://purl.org/dc/elements/1.1/"
   xmlns:cc="http://creativecommons.org/ns#"
   xmlns:rdf="http://www.w3.org/1999/02/22-rdf-syntax-ns#"
   xmlns:svg="http://www.w3.org/2000/svg"
   xmlns="http://www.w3.org/2000/svg"
   xmlns:sodipodi="http://sodipodi.sourceforge.net/DTD/sodipodi-0.dtd"
   xmlns:inkscape="http://www.inkscape.org/namespaces/inkscape"
   width="78"
   height="83"
   version="1.1"
   id="svg3799"
   sodipodi:docname="info-ico.svg"
   inkscape:version="0.92.3 (2405546, 2018-03-11)">
  <metadata
     id="metadata3803">
    <rdf:RDF>
      <cc:Work
         rdf:about="">
        <dc:format>image/svg+xml</dc:format>
        <dc:type
           rdf:resource="http://purl.org/dc/dcmitype/StillImage" />
        <dc:title></dc:title>
      </cc:Work>
    </rdf:RDF>
  </metadata>
  <sodipodi:namedview
     pagecolor="#ffffff"
     bordercolor="#666666"
     borderopacity="1"
     objecttolerance="10"
     gridtolerance="10"
     guidetolerance="10"
     inkscape:pageopacity="0"
     inkscape:pageshadow="2"
     inkscape:window-width="640"
     inkscape:window-height="480"
     id="namedview3801"
     showgrid="false"
     inkscape:zoom="1.888"
     inkscape:cx="38.2"
     inkscape:cy="29"
     inkscape:window-x="0"
     inkscape:window-y="0"
     inkscape:window-maximized="0"
     inkscape:current-layer="svg3799" />
  <defs
     id="defs3793">
    <clipPath
       id="clip_0">
      <rect
         x="-1044"
         y="-1151"
         width="1440"
         height="1699"
         id="rect3790"
         style="clip-rule:evenodd" />
    </clipPath>
  </defs>
  <g
     clip-path="url(#clip_0)"
     id="g3797"
     transform="translate(-11.8,-8.5)">
    <path
       d="m 65.3,88.5 c 2.9,0 5.4,-2 6.2,-4.7 0.6,0.1 1.2,0.1 1.8,0.2 0.4,0 0.9,-0.1 1.3,-0.1 -0.8,4.3 -4.7,7.6 -9.3,7.6 h -44 c -5.2,0 -9.5,-4.3 -9.5,-9.5 V 18 c 0,-5.2 4.3,-9.5 9.5,-9.5 h 44 c 5.2,0 9.5,4.3 9.5,9.5 v 28 c -0.5,-0.1 -1,-0.1 -1.5,-0.1 -0.5,0 -1,0.1 -1.5,0.1 V 18 c 0,-3.6 -2.9,-6.5 -6.5,-6.5 h -44 c -3.6,0 -6.5,2.9 -6.5,6.5 v 64 c 0,3.6 2.9,6.5 6.5,6.5 z M 39.8,24.3 v 9 h -9 v 7 h 9 v 9 h 7 v -9 h 9 v -7 h -9 v -9 z m 50,40.6 c 0,9.1 -7.4,16.5 -16.5,16.5 -9.1,0 -16.5,-7.4 -16.5,-16.5 0,-9.1 7.4,-16.5 16.5,-16.5 9.1,0 16.5,7.4 16.5,16.5 z M 73.3,51.4 c 7.4,0 13.5,6.1 13.5,13.5 0,7.5 -6.1,13.5 -13.5,13.5 -7.4,0 -13.5,-6.1 -13.5,-13.5 0,-7.4 6.1,-13.5 13.5,-13.5 z m -50,6.6 c 0,-0.8 0.7,-1.5 1.5,-1.5 0.8,0 1.5,0.7 1.5,1.5 0,0.8 -0.7,1.5 -1.5,1.5 -0.8,0 -1.5,-0.7 -1.5,-1.5 z m 4,0 c 0,0.8 0.7,1.5 1.5,1.5 H 55 c 0.3,-1 0.7,-2 1.2,-3 H 28.8 c -0.9,0 -1.5,0.7 -1.5,1.5 z m 47.5,10.6 v -12 h -3 v 12 z m -50,-4.8 c -0.8,0 -1.5,0.7 -1.5,1.5 0,0.8 0.7,1.5 1.5,1.5 0.8,0 1.5,-0.7 1.5,-1.5 0,-0.8 -0.7,-1.5 -1.5,-1.5 z m 29.6,3 H 28.8 c -0.9,0 -1.5,-0.7 -1.5,-1.5 0,-0.8 0.7,-1.5 1.5,-1.5 h 25.6 c -0.1,0.4 -0.1,0.7 -0.1,1.1 0,0.6 0,1.3 0.1,1.9 z m 20.4,3.5 v 3 h -3 v -3 z m -50,0.9 c -0.8,0 -1.5,0.7 -1.5,1.5 0,0.8 0.7,1.5 1.5,1.5 0.8,0 1.5,-0.7 1.5,-1.5 0,-0.8 -0.7,-1.5 -1.5,-1.5 z m 4,0 c -0.8,0 -1.5,0.7 -1.5,1.5 0,0.8 0.7,1.5 1.5,1.5 h 27.9 c -0.5,-1 -1,-2 -1.3,-3 z M 23.3,80 c 0,-0.8 0.7,-1.5 1.5,-1.5 0.8,0 1.5,0.7 1.5,1.5 0,0.8 -0.7,1.5 -1.5,1.5 -0.8,0 -1.5,-0.7 -1.5,-1.5 z m 25.5,-1.5 c 0.8,0 1.5,0.7 1.5,1.5 0,0.8 -0.7,1.5 -1.5,1.5 h -20 c -0.8,0 -1.5,-0.7 -1.5,-1.5 0,-0.8 0.7,-1.5 1.5,-1.5 z m 3,1.5 c 0,0.8 0.7,1.5 1.5,1.5 0.8,0 1.5,-0.7 1.5,-1.5 0,-0.8 -0.7,-1.5 -1.5,-1.5 -0.8,0 -1.5,0.7 -1.5,1.5 z m 7,0 c 0,0.8 -0.7,1.5 -1.5,1.5 -0.9,0 -1.5,-0.7 -1.5,-1.5 0,-0.8 0.7,-1.5 1.5,-1.5 0.8,0 1.5,0.7 1.5,1.5 z m 1.5,-1.1 c 0.7,0.6 1.5,1.3 2.3,1.8 -0.2,0.5 -0.7,0.8 -1.4,0.9 -0.8,0 -1.5,-0.7 -1.5,-1.5 0,-0.5 0.3,-0.9 0.6,-1.2 z"
       id="path3795"
       inkscape:connector-curvature="0"
       style="fill:#0bac8b;fill-rule:evenodd;stroke:none" />
  </g>
</svg>
