<svg xmlns="http://www.w3.org/2000/svg" xmlns:xlink="http://www.w3.org/1999/xlink" xmlns:fi="http://pattern.flaticon.com/" x="0" y="0" width="1440" height="400" viewBox="0 0 350.00000000000006 97.22222222222223"><rect x="0px" y="0px" width="100%" height="100%" opacity="0" fill="#ffffff"/><defs><g transform="matrix(0.14680953323841095 0 0 0.14680953323841095 87.4167594909668 -0.5832405090332031)" id="L1_0"><circle cx="256" cy="256" r="256" fill="#fad24d"/><path d="M256.001,77.707c98.47,0,178.293,79.823,178.293,178.293c0,98.467-79.823,178.293-178.293,178.293  c-98.467,0-178.293-79.826-178.293-178.293C77.708,157.529,157.534,77.707,256.001,77.707z" fill="#15bdb2"/><path d="M256.001,77.707c70.623,0,131.649,41.061,160.521,100.611c4.347,16.166,6.679,33.158,6.679,50.7  c0,107.582-87.213,194.796-194.799,194.796c-16.01,0-31.563-1.946-46.45-5.588C120.447,390.104,77.709,328.045,77.709,256  C77.709,157.528,157.534,77.707,256.001,77.707L256.001,77.707z" fill="#21d0c3"/><path d="M367.394,116.794c33.152,26.565,56.615,64.722,64.23,108.331c-0.536-0.828-1.086-1.909-1.639-3.516  c-3.481,1.142-3.595,1.233-7.706,1.92l-0.181,0.25c-1.635,2.329,0.083,1.342-2.791,3.772c-3.423,2.879-5.652,6.81-9.472,9.139  c-0.46,4.071,0.339,4.985-0.686,9.83c-0.402,1.784-2.397,6.583-4.74,6.219c-0.742-0.137-3.882-7.911-4.623-10.058  c-1.257-3.658-2.684-6.355-3.595-10.558c-0.513-2.244-0.859-6.536-1.371-8.047c-2.454,0.364-2.343,1.925-4.685,0.278  c-1.653-1.193-0.911-1.92-1.825-3.704c-1.939-1.828-3.938-3.657-5.933-5.486c-1.544-0.5-7.48,0.364-9.992,0.091  c-4.51-0.414-4.904-0.137-7.59-3.749c-4.74,0.233-4.341,2.011-8.964-1.965c-3.027-2.561-2.454-6.674-6.849-4.345  c-0.169,3.75,1.656,4.577,3.312,6.31c1.196,1.328,2.683,2.244,3.309,4.022c0.059,0.05,0.345,1.738,0.403,1.965  c4.28,0.278,5.307-1.779,7.647-3.516c2.286,2.147,0.056,2.515,3.368,4.204c2.624,1.328,2.112,0.551,3.822,2.697  c0.858,2.879-5.878,10.695-8.106,12.114c-1.711,1.096-2.624,0.455-4.165,1.733c-2.281,1.923,0.286,1.648-3.709,3.112  c-4.28,1.556-8.509,4.845-13.015,5.118c-0.972-2.652-1.942-5.345-2.91-8.044c-2.857-9.188-2.741-5.621-5.655-10.377  c-1.371-2.059-0.798-3.384-1.714-5.213c-0.63-1.369-1.596-1.965-2.454-3.653c-1.312-2.606-2.851-6.673-5.878-6.264  c-0.63,2.057,2.798,9.003,3.652,10.696c0.858,1.692,2.226,2.423,2.628,4.849c0.568,3.333-0.116,2.921,1.711,5.158  c3.826,4.617-0.17,3.8,5.767,8.321c4.449,3.384,3.309,4.389,5.195,8.917c2.911,0.818,11.586-3.061,13.07-1.919  c1.77,3.152-2.052,8.178-3.023,10.923c-3.197,9.188-8.793,9.051-13.072,16.089c-2.337,3.8-3.425,4.299-5.593,8.872  c-2.456,5.163,4.965,19.471,0.514,25.461c-0.971,1.368-4.11,2.193-8.048,6.355c-4.169,4.523,0.112,3.744-1.487,11.287  c-1.255,1.739-2.794,1.829-4.338,3.066c-0.569,1.779-0.112,3.193-1.083,5.391c-1.029,2.651-1.198,1.233-2.685,3.384  c-1.085,1.687-0.968,2.374-2.226,3.93c-1.085,1.419-1.656,1.824-2.681,2.743c-4.968,4.572-15.643,4.708-16.555,4.067  c-2.515-2.148-0.799-2.697-1.426-5.714c-0.611-2.652-2.018-4.871-3.193-6.919l-0.12-0.214c-0.568-1.001-1.086-1.966-1.371-2.879  c-2.056-6.491-1.309-11.424-4.906-18.006c-4.51-8.507,2.508-12.938,2.222-17.736c-0.113-1.279-0.568-2.056-0.685-3.066  c-0.854-5.3-1.367-10.053-4.906-14.216c-3.882-4.522-3.37-2.924-2.114-10.372c1.597-8.548-2.055-6.356-7.19-6.582  c-2.515-7.771-7.423-3.982-12.331-1.693c-3.082,1.414-4.224-0.41-7.709,0.091c-7.765,1.052-1.654,4.389-12.044-3.839  c-4.338-3.43-1.427-1.693-3.995-5.987c-0.855-1.556-3.483-3.612-4.683-5.168c-3.936-4.935,0.745-9.917,0.06-15.586  c-1.202-10.512-2.911-1.373,2.967-14.079c3.084-6.765,7.763-6.81,8.963-9.831c1.028-2.693,0.339-4.616,2.284-7.082  c1.712-2.011,4.167-1.602,5.137-4.754c1.367-3.885-1.257-4.385-4.11-4.481c-1.197-4.065-1.197-3.061-0.286-6.81  c0.515-2.102,0.057-3.112,0.515-5.214c1.141-5.254,10.103-0.04,12.674-2.193c1.197-2.238,1.369-4.431,0-6.582  c-1.431-2.147-3.31-1.874-4.282-3.93c2.169-1.46,0.569-0.183,2.455-0.597c2.225-0.5,1.938-1.141,4.563-1.642  c2.341-0.46,3.83-2.606,6.109-4.067c3.255-2.102,1.711-3.98,5.652-4.617c6.337-1.101,2.225-0.915,2.914-6.815  c0.964-0.364,1.879-0.779,2.794-1.189c1.999,2.608-0.512,1.556,1.883,3.29c0.629-0.364,1.369-0.729,2.056-1.093  c-0.343-2.838-1.654-2.288-2.512-5.805c-3.14,0.5-4.282,3.152-6.792,2.193c-2.455-0.915-2.569-4.435-2.455-7.361  c0.911-2.193,5.479-3.38,7.247-3.931c2.858-0.959,2.456-2.879,5.084-5.486c3.426-3.43,0.911,0.046,2.569-4.386  c3.769-0.141,1.999-0.275,4.224-1.418l0.113-0.045l0.229-0.092c1.315-0.597,3.027-0.732,4.741-1.323  c6.277-2.101,8.845-1.05,13.411,0.819c3.539,1.464,14.216,1.51,15.015,5.991c-2.569,2.693-5.023,0.728-8.733,0.958  c0.684,3.471,0.97,3.471,4.11,4.431c0.514-1.646-0.23-1,0.627-2.056c1.029,0.228,2.057,0.41,3.08,0.595  c1.033-3.521,2.229-3.015,5.714-3.429c-0.573-2.424-1.203-1.738,0.111-3.658c3.6,0.367,0.686,0.05,2.455,2.929  c2.511-0.321,4.967-3.112,8.448-3.475c2.17-0.229,2.058,0.595,5.137,0.273c2.513-0.273,2.397-1.189,4.913-0.137  c0.91-1.693,0-1.648,2.226-2.057c3.422-0.595,6.393,1.506,9.701,1.966c-2.45-3.016-4.793-2.426-1.769-7.452  c3.824-0.778,4.167-0.228,5.822,2.652C366.532,117.594,366.931,117.066,367.394,116.794L367.394,116.794z M81.878,217.55  c8.033-36.544,27.27-68.885,53.932-93.236c2.071,0.721,4.811,0.244,6.869,0.159c0.738-1.368,1.198-2.561,2.508-3.061  c0.515-0.182,1.145-0.227,1.998-0.182c0.115,0.682,0.286,1.368,0.457,2.056c0,0.051,0.116,0.504,0.06,0.415  c0.056-0.097,0.112,0.272,0.168,0.409c3.601-2.102,0.573-2.148,2.513-5.941c-3.027-0.597-2.625-0.233-4.511-2.153  c1.83-2.01,5.366-2.697,7.993-2.512c-0.174,1.829-1.027,1.785-0.342,3.335c2.056-1.279,3.481-4.705,6.792-4.067  c0.629,0.455,1.374,0.868,2.056,1.278c-1.714,1.602-4.28,1.693-6.505,2.606c-0.972,9.923,3.139,1.602,1.769,8.412  c2.454-0.182,4.855-1.965,5.764-3.794c-0.91-1.189-2.225-1.189-2.966-2.608c0.577-1.828,1.804-3.211,3.537-4.035  c1.174-0.56,2.579-0.855,4.168-0.855c18.153,0.138,9.53,0.959,15.129,3.522c1.253,0.545,3.478,0.822,4.224,1.919  c1.141,1.738,0.057,3.379,1.879,4.754c1.601,1.187,1.83-0.046,3.941,2.608c-0.455,1.505-1.543,3.06-3.765,3.107  c-3.082,0.045-1.257-2.058-4.569-1.739c0.059,3.106,3.142,4.299,0.284,5.987c-2.511,1.51-0.915-0.546-2.796,0.504  c-0.058,0.046-0.231,0.137-0.287,0.183c-0.112,0.09-0.227,0.227-0.285,0.318c-0.343,0.367-0.63,0.686-0.912,1.009  c-4.566-1.238-3.707-0.686-6.449-3.703c-1.028-1.142-1.197-1.419-3.026-1.278c-1.141,0.04-2.624,0.541-3.713-0.461  c2.231-2.788,3.314-0.09,6.566-1.738c0.573-0.277,4.168-3.061,4.741-3.703c-0.971-2.193-0.117-0.367-1.541-1.784  c-3.201-3.243-4.115-2.424-8.449-2.424c-2.032,2.338-3.553,5.228-5.764,6.497c-1.335,0.769-2.924,0.942-5.026,0.045  c0.971,3.93,3.478,0.915,3.709,5.668c-1.654-0.323-2.512-1.146-4.224-0.551c-3.653,1.369-0.399,1.233-0.113,1.966  c0,0.045,1.712,0.227,0,0.867c-1.887,0.684-0.286-0.367-3.939-2.514c0.513-0.915,1.029-1.869,1.541-2.834  c-2.968,0.915-6.68,2.378-10.158,4.067c-3.941,1.966-7.654,4.208-9.878,6.264c-0.058,3.431,0.571,1.142,0.913,5.215  c5.31,0.317,3.595,1.913,8.906,3.424c1.027,0.278,2.341,0.551,3.94,0.824c0,2.56-2.286,4.48-0.689,7.133  c3.711,2.602,3.826-2.469,4.74-5.714c12.564-2.625,6.51-6.32,9.757-13.229c0.487-1.033,1.178-2.133,2.176-3.321  c0.966,0.045,4.904,0.46,5.763,0.641c2.855,0.501,1.314,1.187,4.396,2.557c-0.059,2.469-1.313,5.669,2.339,5.077  c2.796-0.501,2.173-2.698,5.594-3.249c1.539,3.613,1.14,5.169,1.825,9.507c8.222,3.203,4.566,5.806,2.967,11.796  c1.03,0.5,2.111,0.961,3.199,1.415c-0.056,1.738-0.116,3.429-0.172,5.122c-0.17,0-8.793-1.879-9.364-2.056  c1.314-3.753,3.712-3.795,5.255-7.634c-3.081,0.546-2.857,1.505-5.082,2.193c-1.996,0.597-3.539,0.182-5.651,0.46  c-0.743,2.466-0.058-2.153,0.174,1c0.113,1.193,0.686,0.051-0.117,1.328c-2.855-1.328-1.882-4.434-7.193-1.555  c1.199,0.551,2.396,1.05,3.653,1.555c-0.17,3.516-0.455,0.865-1.197,3.199c-1.83,5.987,4.966,2.284,6.736,1.965  c-0.46,3.157-2.398,3.157-5.141,4.022c-3.022,0.913-3.936,2.151-6.336,2.702c0-3.753-0.568-0.597,1.086-3.203  c-2.4,0.227-4.169,1.323-6.45,2.288l-0.228,0.086c-2.934,1.197-3.378,1.374-3.712,5.122c-2.511,0.774-5.421,1.648-7.19,3.477  c-1.77,1.687-3.54,3.378-5.256,5.025c-0.17,0.137-0.285,0.273-0.395,0.364c0.629,4.709,0,4.8-2.857,6.633  c-2.398,1.551-3.198,1.506-5.422,3.471c-7.134,6.4-3.71,3.425-3.314,14.444c-1.483-0.455-2.91-0.959-4.278-1.46  c-1.087-7.316,0.397-4.89-5.481-6.582c-6.336-1.829-5.481,1.277-8.106,1.828c-2.91,0.637-4.341-2.652-8.565,0.091  c-2.338,1.597-4.564,2.649-5.136,5.482c-0.685,3.43-2.226,5.939-1.998,9.739c0.402,10.286,9.761,10.877,12.16,6.078  c1.596-3.198,1.2-4.935,6.394-4.113c0.515,2.745-0.286,4.754-0.972,6.856c-0.455,1.233-1.713,3.471-1.083,5.168  c3.712,1.506,3.824-1.328,8.735,1.597c0.343,4.89-2.226,10.376,1.541,13.21c2.91,2.148,3.082,0.228,5.65-0.228  c2.857-0.5,2.343,1.279,4.971,1.692c1.483-1.828,0.854-0.685,1.827-2.929c1.712-3.879,2.168-2.056,6.222-4.429  c0.396-0.228,0.738-0.46,1.141-0.732c0.456,0.958,0.97,1.873,1.424,2.788c2.969-3.521,3.313-0.092,6.738,0.868  c1.475,0.404,2.522,0.551,3.331,0.559c2.491,0.038,2.745-1.173,6.143,0.033c0.402,0.187,0.916,0.323,1.374,0.458  c0.058,0,0.227,0.092,0.227,0.183c0.06,0.046,0.229,0.182,0.285,0.231c0.568,0.638,0.63,1.279,1.086,1.966  c2.342,2.238,4.683,4.48,6.964,6.673c4.507,1.783,4.507-1.555,9.647,3.425c2.168,2.057,1.197,2.016,2.397,4.663  c0.174,0.414,0.513,0.822,0.743,1.328c0.455,1.233,0.97,2.42,1.485,3.607c2.338,3.067,5.535,1.147,8.789,4.301  c1.882,1.827,0.46,1.277,4.623,2.01c6.452,1.05,3.943,0.458,8.853,4.162c1.881,1.369,2.337,0.592,4.108,1.779  c2.454,3.43,1.824,7.134-0.227,10.149c-6.337,9.234-4.168,7.725-4.454,15.04c-0.23,4.204-1.427,12.888-5.369,13.938  c-14.327,4.027-5.995,6.816-9.759,13.899c-1.086,2.014-1.886,2.515-2.572,4.115c-2.851,6.669-0.854,8.913-9.303,7.407  c0.801,1.415,0.285,0.455,1.088,1.734c2.507,3.885,2.91,6.815-2.231,7.769c-4.28,0.824-2.454,0-2.853,4.754  c-1.656,0.688-2.397,0-3.482,1.096c1.483,2.745,0.113,0.46,2.628,2.016c-0.46,1.506-0.801,2.97-1.201,4.431  c-0.968,3.567-1.255,0.278-1.596,4.435c1.483,0.682,2.512,0.546,3.822,2.332c-0.17,1.369-1.539,5.117-1.939,7.266  c2.112,3.157,3.827,6.537,8.336,6.861c-0.059,2.646,0.568,2.374-1.714,2.92c-1.941,0.458-6.049-1.369-7.767-2.284  c-2.967-1.602-5.708-3.704-7.703-6.719c-1.141-1.693-0.685-0.868-1.886-2.466c-2.169-2.789-1.31-4.071-1.939-5.946  c-0.343-1.095-2.112-2.284-1.371-5.849c0.172-1.005,1.771-5.805-0.169-4.981c-1.942,0.779,1.482,0.455-1.202,1.738  c-0.63-1.738-1.141-4.298-1.484-6.445c-0.685-3.613-1.541-3.75-1.942-5.941c-0.855-5.077,1.314-5.627-1.085-14.086  c-1.575-5.594-0.942-18.841-2.606-25.638c-0.265-1.082-0.591-2.001-0.989-2.703c-1.541-2.556-5.311-3.744-8.333-5.805  c-0.172-0.04-0.286-0.091-0.342-0.182c-4.168-2.925-8.107-14.399-11.42-18.691c-1.539-2.062-2.511-1.147-3.197-4.39  c-0.741-2.97,0.399-2.465,1.371-4.94c-5.079-9.322,6.566-9.185,4.168-20.384c-0.513-2.056-1.994-4.935-3.254-5.846  c-2.398,1.05-1.257,1.642-2.514,3.653c-1.94-1.096-3.881-2.197-5.764-3.289c-5.881-5.669-2.742-1.556-4.394-5.26  c-3.539-7.771-6.909-3.424-11.132-7.265c-1.887-1.601-2.229-4.116-5.367-3.658c-4.735,0.637-2.111,1.369-7.02-0.918  c-4.168-1.966-8.506-4.25-11.419-6.902c-0.154-5.549,1.536-5.015-2.685-10.137L81.878,217.55z M137.771,122.559  c1.08-0.957,2.172-1.901,3.275-2.832l0.09,0.181c0.226,0.364,0.398,0.364,0.63,1.323  C138.873,121.935,138.876,122.414,137.771,122.559z M290.354,175.565c1.578,1.009,3.515,1.778,4.683,2.801  c1.484,4.068-0.398,2.103,2.512,6.356c1.656,2.284,1.313,3.93,3.023,5.209c3.144-0.41,0.402,0.504,2.341-1.414  c0.344-0.365,1.314-1.511,1.596-1.965c-1.024-1.556-1.653-1.693-2.564-3.295c3.535-4.703,5.079-2.01,5.933,1.101  c2.229,8.639,5.651,6.122,8.509,5.71c2.909-0.41,0.395,0.094,3.022,0.778c2.512,0.641,1.31,0,3.081-0.455  c5.993-1.465,1.373,10.148,0.745,11.427c-3.254,0.409-2.625-0.318-4.971-0.551c-4.737-0.5,0.286,2.838-10.9-0.824  c-10.734-3.424-8.449-4.204-10.677,3.249c-2.454-0.182-2.337-0.642-4.62-1.414c-0.872-0.332-1.374-0.509-1.717-0.61l-0.113-0.037  c-0.911-0.318,0-0.041-1.882-1.824c-1.658-1.556-5.709-1.92-8.566-3.43c0-2.466,2.169-4.522-0.456-7.45  c-0.854-0.228-13.016,0.278-14.954,0.688c-3.937,0.822-4.627,4.158-10.049,3.429c-2.967-0.414-1.938-0.136-2.684-1.874  c0.971-0.958,0-0.458,1.66-1.05c0.626-0.228,0.855-0.137,1.483-0.228c8.789-1.327,4.279-5.764,9.76-10.012  c4.566-3.658,0.971,0.046,3.483-4.389c3.082-0.273,2.683,1.232,5.309-0.046c2.173-1.096,1.483-2.056,4.566-2.151  c2.741,2.747,2.168,4.39,6.622,6.491c1.77,0.827,2.852,1.283,3.993,2.794c2.056,2.924,0.286,1.965,1.089,3.976  c0.17-0.092,0.395-0.188,0.625-0.273l0.113-0.056c2.4-1.146-1.199-1.509,2.683-4.93c-1.138-0.822-1.966-1.401-2.683-1.81  l-0.113-0.063c-3.023-1.78-1.825-0.138-5.708-4.981c-1.029-1.374-1.314-1.462-1.255-3.567c2.794-0.501,3.31,1.509,5.821,3.749  c0.341,0.323,0.742,0.595,1.141,0.868L290.354,175.565L290.354,175.565z M351.321,298.631c-2.507,1.277-2.853,4.207-4.737,5.851  c-2.056,1.874-4.797,1.01-5.596,4.48c-1.027,4.341,1.714,3.016-1.313,8.685c-1.082,2.101-1.141,7.356,0.516,8.915  c4.965,4.796,7.65-7.314,8.79-11.108c0.854-2.697,1.656-5.76,2.569-8.275C352.466,304.48,353.775,302.105,351.321,298.631z   M343.103,171.096c0.398,5.583,3.707,7.73,6.053,10.286c-0.286,2.652-0.915,1.965-0.858,5.669c2.798,2.016,4.85,3.244,8.504,2.242  c0.513-4.479-0.913-4.253-2.283-7.314c0.228-0.369,0.854-0.822,0.968-0.915c1.029-1.369,0.517,0.546,1.029-1.784  c-2.682-0.864-7.022-3.611-7.362-7.219c1.31-1.05,0.911-0.414,1.879-1.05c2.112-1.374,0.516,0.727,1.77-1.602  c-1.08-2.102-2.283-2.47-4.906-1.419C346.757,168.45,343.73,170.597,343.103,171.096z M319.753,172.562  c-1.77-2.465-1.656-3.703-5.082-3.794c-1.367,1.464-2.967,3.658-3.709,5.894c-1.141,3.384-0.343,1.052-0.229,4.709  c-0.058,0.137,0,0.321,0,0.46c-0.058,2.192-0.573-0.414-0.231,1.6c2.685-0.549,0.631-0.504,2.628-1.146  c1.885-0.642,7.651-2.378,9.308-1.965c3.936,0.915,7.25,4.027,11.703,0.915c-0.231-3.976-5.026-5.486-8.336-7.224  c0.172-3.654,1.141-0.774,0.911-4.296c-1.141-0.045-1.825-0.228-2.91,0.229c-2.567,1.141-1.142,1.464-1.142,1.873  c0.116,1.965,2.57-0.409-0.056,2.016C321.866,172.471,320.666,172.471,319.753,172.562L319.753,172.562z M253.076,144.863  c-0.109,6.399,2.112,4.249,4.225,7.405c-0.968,2.698-1.14,0.597-2.222,3.38c-0.971,2.332,0.228,0.233-0.403,4.299  c1.658,0.091,4.109-0.501,6.281-0.688c3.085-0.273,3.027-0.551,4.112-3.703c-1.712-2.102-3.425-4.204-5.195-6.306  c-2.231-3.385,0-1.056-0.685-3.89c-0.514-1.005-0.972-2.006-1.427-3.016C254.792,143.357,255.079,143.08,253.076,144.863  L253.076,144.863z" fill="#eef3f7"/><path d="M192.868,65.612l14.889-6.352c6.329-2.7,13.185-2.565,19.129-0.176  c5.943,2.388,10.986,7.038,13.685,13.366l37.634,88.225c14.203,33.295,1.475,63.913-22.472,85.121  c-9.177,8.126-20.013,14.859-31.596,19.804c-11.583,4.943-23.935,8.111-36.144,9.107c-31.808,2.597-62.636-9.414-76.861-42.762  l-37.633-88.226c-2.7-6.328-2.565-13.185-0.177-19.129l0.013-0.006c2.39-5.943,7.033-10.984,13.354-13.679l14.889-6.352l2.616,6.134  l-14.888,6.352c-4.641,1.979-8.049,5.676-9.806,10.034l0.009,0.004c-1.754,4.361-1.854,9.39,0.124,14.025l37.634,88.225  c12.906,30.258,41.068,41.139,70.17,38.763c11.499-0.939,23.151-3.93,34.094-8.6c10.944-4.672,21.167-11.021,29.811-18.676  c21.916-19.411,33.614-47.319,20.73-77.524l-37.634-88.225c-1.978-4.635-5.677-8.042-10.038-9.797  c-4.362-1.753-9.392-1.853-14.026,0.124l-14.889,6.352L192.868,65.612L192.868,65.612z" fill="#ffffff"/><path d="M274.503,146.327l5.749,13.477c14.642,34.325,1.569,65.846-23.054,87.654  c-9.354,8.283-20.394,15.143-32.19,20.179c-11.797,5.036-24.382,8.261-36.828,9.278c-32.709,2.669-64.425-9.716-79.091-44.097  l-5.749-13.478l10.223-4.36l5.749,13.477c12.468,29.227,39.739,39.731,67.941,37.43c11.262-0.919,22.681-3.852,33.411-8.432  c10.729-4.579,20.749-10.802,29.215-18.299c21.24-18.809,32.593-45.818,20.15-74.991l-5.749-13.478L274.503,146.327L274.503,146.327  z" fill="#ff5b62"/><circle cx="380" cy="265" r="30" fill="#ffffff"/><circle cx="380" cy="265" r="27" fill="#076673"/><circle cx="380" cy="265" r="16" fill="#ebecec"/><rect x="386px" y="274px" width="8px" height="26px" transform="matrix(0.9198 -0.3924 0.3924 0.9198 -81.532 176.2209)" fill="#ffffff"/><path d="M400.721,295.477l10.538,24.707c8.266,19.376,8.394,41.08,0.545,60.606  c-7.849,19.528-22.961,35.103-42.338,43.368c-19.376,8.266-41.081,8.407-60.611,0.556c-19.53-7.85-35.098-22.973-43.365-42.35  l-43.77-102.609l11.876-5.066l43.77,102.61c6.92,16.223,19.955,28.866,36.303,35.437c16.348,6.57,34.508,6.465,50.73-0.454  c16.219-6.919,28.857-19.963,35.428-36.307c6.57-16.343,6.477-34.506-0.442-50.725l-10.539-24.707L400.721,295.477L400.721,295.477z  " fill="#ff5b62"/><g><path d="M88.962,108.405l7.961-3.397c0.409-3.172,2.44-6.052,5.594-7.398   c4.739-2.02,10.219,0.183,12.24,4.921c2.022,4.738-0.182,10.219-4.92,12.24c-3.156,1.346-6.639,0.816-9.212-1.083l-7.961,3.396   L88.962,108.405L88.962,108.405z" fill="#076673"/><path d="M198.391,61.726l-7.961,3.396c-2.573-1.9-6.057-2.428-9.212-1.082   c-4.738,2.02-6.94,7.501-4.92,12.24c2.022,4.739,7.502,6.941,12.241,4.92c3.156-1.346,5.184-4.226,5.593-7.4l7.961-3.396   L198.391,61.726L198.391,61.726z" fill="#076673"/></g><path d="M229.754,265.423l6.529,15.306l-12.067,5.148l-6.594-15.458c2.432-0.79,4.829-1.691,7.18-2.695  C226.477,267.009,228.127,266.241,229.754,265.423L229.754,265.423z" fill="#ff5b62"/><circle cx="379" cy="264" r="15" fill="#fefefe"/></g><g transform="matrix(0.1853926181793213 0 0 0.1853926181793213 20.53948974609375 2.53948974609375)" id="L1_3"><circle cx="256" cy="256" r="256" fill="#ff5b62"/><path d="M103.982,3.034h178.881c2.823,0,5.113,2.29,5.113,5.113v343.59c0,2.823-2.29,5.113-5.113,5.113  H103.982c-2.823,0-5.113-2.29-5.113-5.113V8.147C98.87,5.324,101.158,3.034,103.982,3.034z" fill="#666666"/><path d="M111.821,50.784H275.02c2.194,0,3.972,1.779,3.972,3.972V305.13c0,2.194-1.779,3.972-3.972,3.972  H111.821c-2.194,0-3.972-1.779-3.972-3.972V54.755C107.848,52.561,109.627,50.784,111.821,50.784z" fill="#ffffff"/><g><path d="M150.475,24.876h85.89c1.974,0,3.575,1.6,3.575,3.573l0,0c0,1.973-1.601,3.573-3.575,3.573h-85.89   c-1.974,0-3.575-1.6-3.575-3.573l0,0C146.9,26.476,148.501,24.876,150.475,24.876z" fill="#c0c1c4"/><circle cx="192" cy="334" r="11" fill="#c0c1c4"/></g><circle cx="193" cy="256" r="28" fill="#21d0c3"/><path d="M182.52,237.931c-2.591,1.833-7.372,7.931-3.644,15.505c2.545,5.168,9.69,14.023,14.189,17.598  c6.614,5.243,13.583,1.866,15.926-0.281c1.995-1.829-4.886-13.057-10.42-5.944c-3.889,4.997-18.138-12.692-12.443-15.431  C194.247,245.47,184.732,236.37,182.52,237.931z" fill="#fefefe"/><circle cx="193" cy="135" r="65" fill="#fad24d"/><path d="M184.321,134.217c6.064,0,12.129,0,18.193,0l0.102,1.243l-8.892,13.483l-9.551-13.611l0.148-1.109  L184.321,134.217L184.321,134.217z" fill="#b3b3b3"/><path d="M184.442,130.835l-0.157,7.602l-12.9,7.053v25.86h21.718h21.713v-25.86l-11.991-7.45l-0.656-7.602  L184.442,130.835z" fill="#f0ba7d"/><path d="M178.478,108.661c0,0-0.739-1.626-2.725-0.822c-1.986,0.803,0.088,8.836,0.85,9.959  c0.758,1.118,1.977,0.406,2.425,0.365c0.633,4.79,0.689,8.087,2.605,10.106c1.815,1.912,5.972,5.806,8.161,7.164  c1.483,0.314,2.591,0.499,3.63,0.55c1.039-0.056,2.148-0.241,3.63-0.55c2.19-1.358,6.347-5.252,8.161-7.164  c1.917-2.018,1.972-5.317,2.605-10.106c0.443,0.042,1.668,0.758,2.425-0.365c0.758-1.123,2.835-9.15,0.85-9.959  c-1.986-0.803-2.725,0.822-2.725,0.822s1.963-6.31-1.524-12.517c-2.392-4.254-7.843-6.461-13.418-6.623  c-5.57,0.162-11.025,2.369-13.418,6.623c-3.492,6.208-1.524,12.517-1.524,12.517H178.478z" fill="#fed298"/><path d="M177.956,140.678l3.09-1.215l2.489-2.236l8.79,6.665h2.19l8.794-6.674l5.579,3.464l9.69,16.475  l-7.676,41.648c-5.565,1.543-11.427,2.369-17.482,2.369c-4.937,0-9.75-0.55-14.374-1.594l-13.759-41.111l12.664-17.791  L177.956,140.678L177.956,140.678z" fill="#15bdb2"/><g><path d="M206.067,138.595l-3.547-4.378l-7.999,9.672l6.869,7.63l4.684-12.928L206.067,138.595z" fill="#21d0c3"/><path d="M180.77,138.516l3.552-4.3l8.004,9.672l-7.141,7.551l-4.415-12.928L180.77,138.516L180.77,138.516z" fill="#21d0c3"/></g><path d="M180.77,138.516l-23.523,7.649c-0.956,0.309-1.557,1.123-1.751,2.111l-6.919,35.052  c4.66,4.406,9.968,8.129,15.764,11.015l3.436-11.224c0.037-0.13,0.162-0.208,0.295-0.194s0.236,0.125,0.245,0.258l0.494,13.177  c7.593,3.095,15.902,4.804,24.604,4.804v-4.378l-12.651-58.279L180.77,138.516z" fill="#ffffff"/><g><path d="M180.77,138.516l-2.693,0.826l-7.136,12.179l9.011,0.281l-5.533,3.15l19.006,41.841l-12.651-58.279   L180.77,138.516L180.77,138.516z" fill="#eef3f7"/><path d="M206.067,138.595l23.528,7.57c0.956,0.309,1.557,1.123,1.751,2.111l6.918,35.052   c-4.66,4.406-9.968,8.129-15.764,11.02l-3.441-11.224c-0.037-0.13-0.162-0.208-0.295-0.194c-0.134,0.014-0.236,0.125-0.241,0.258   l-0.494,13.177c-7.593,3.095-15.902,4.804-24.604,4.804l0,0v-4.378l12.646-58.201L206.067,138.595z" fill="#eef3f7"/></g><path d="M206.067,138.595l1.496,0.457l8.337,12.549l-9.011,0.281l5.533,3.15l-18.997,41.762l12.646-58.201  h-0.004V138.595z" fill="#ffffff"/><path d="M206.648,110.541l1.385-0.046l0.443-1.58l1.307-1.302c0.859-6.484,1.113-16.573-5.321-16.281  c0,0-0.582-7.358-12.189-5.916c-11.611,1.441-16.854,8.938-16.23,15.191c0.624,6.254,0.374,7.011,0.374,7.011l1.302,1.302  l0.199,1.796l1.141-0.074c0,0,0.355-2.406,0.712-3.464c0.355-1.058,0.245-3.201,0.245-3.201s13.713,0.873,17.417-3.839  c2.291-2.91,7.542-7.953,7.811-0.97c0.079,2.069-0.693,5.173,0.78,7.436c1.473,2.259,0.624,3.94,0.624,3.94L206.648,110.541  L206.648,110.541z" fill="#666666"/><path d="M193.42,196.792l3.704-17.062l-2.517-33.629l1.371-0.587l-1.464-1.631h-2.19l-1.506,1.594  l1.413,0.624l-2.457,33.902L193.42,196.792z" fill="#0f7986"/><path d="M181.241,175.851l2.009-0.397c0.854-0.171,1.561-0.67,2.009-1.344s0.647-1.52,0.476-2.374  l-2.36-11.898c-0.891-4.489-4.401-6.781-8.42-7.289c-1.538-0.194-3.15-0.125-4.711,0.185c-1.561,0.309-3.081,0.859-4.424,1.626  c-3.505,2-5.871,5.45-4.979,9.949l2.36,11.898c0.171,0.854,0.675,1.561,1.344,2.009l0,0c0.675,0.453,1.52,0.647,2.369,0.476  l2.009-0.397l-0.162-0.826l-2.009,0.397c-0.628,0.125-1.247-0.019-1.737-0.346l0,0c-0.494-0.332-0.863-0.85-0.988-1.473  l-2.36-11.903c-0.808-4.083,1.353-7.224,4.563-9.052c1.271-0.721,2.698-1.243,4.176-1.533s2.997-0.36,4.443-0.176  c3.672,0.466,6.887,2.545,7.695,6.619l2.36,11.903c0.125,0.624-0.019,1.248-0.351,1.737c-0.332,0.494-0.85,0.863-1.473,0.988  l-2.009,0.397l0.162,0.826L181.241,175.851L181.241,175.851z" fill="#21d0c3"/><path d="M184.012,161.597l-0.36-1.819c-0.919-4.628-4.535-6.988-8.66-7.51c-1.566-0.199-3.21-0.13-4.799,0.19  c-1.594,0.314-3.136,0.877-4.508,1.658c-3.607,2.055-6.037,5.612-5.118,10.249l0.36,1.819l1.376-0.272l-0.36-1.819  c-0.78-3.94,1.316-6.983,4.429-8.757c1.243-0.707,2.642-1.215,4.092-1.501c1.446-0.286,2.937-0.351,4.355-0.176  c3.561,0.448,6.674,2.462,7.454,6.398l0.36,1.819l1.381-0.272L184.012,161.597z" fill="#4d4d4d"/><g><path d="M180.783,139.136c-0.037,0-12.715,0.106-10.572,11.196l-1.178,0.227   c-2.415-12.503,11.699-12.618,11.736-12.623l0.014,1.197L180.783,139.136L180.783,139.136z" fill="#4d4d4d"/><path d="M206.081,137.995c2.069,0.056,6.069,0.619,9.145,4.364c3.011,3.663,5.122,10.393,3.543,22.729   l-1.187-0.153c1.529-11.94-0.448-18.369-3.28-21.814c-2.772-3.367-6.379-3.875-8.249-3.926l0.028-1.197v-0.003H206.081z" fill="#4d4d4d"/></g><path d="M193.633,353.687h0.005c3.413-5.774,10.249-6.092,16.65-4.055l39.721,12.683l-0.988-8.397  l-5.737-19.44l-18.101-39.925l-18.115-40.312c-2.835-6.314-0.217-13.921,6.032-16.568c6.249-2.642,13.574,0.046,16.424,6.351  l31.177,69.074l3.067-1.169l-7.958-15.81c-3.109-6.18-0.139-13.755,6.032-16.563c6.175-2.803,13.316,0.176,16.429,6.351  l8.646,17.181l3.468-1.321l-5.774-10.993c-3.215-6.124-0.213-13.921,6.032-16.563c6.249-2.647,13.21,0.231,16.429,6.356  l6.489,12.351l4.157-1.584l-3.044-6.429c-2.96-6.249-0.213-13.917,6.032-16.559c6.249-2.642,13.464,0.102,16.424,6.351l6.31,13.316  l1.288,2.171l28.142,74.339c3.82,10.087,3.45,20.152,1.21,26.835c-0.642,1.917-1.436,3.552-2.332,4.836l32.52,74.071l-79.573,35.948  l-28.46-81.563c-21.403-0.988-77.914-41.421-98.366-54.03c-5.741-3.542-7.649-11.163-4.236-16.932L193.633,353.687L193.633,353.687z  " fill="#fed198"/><path d="M331.027,503.354l-6.333,2.863l-28.46-81.563c-21.403-0.988-77.914-41.421-98.366-54.03  c-1.03-0.633-1.935-1.399-2.712-2.268c30.008,15.893,80.436,51.993,104.14,52.326l31.731,82.676L331.027,503.354L331.027,503.354z" fill="#f0b97d"/><path d="M303.675,469.918l90.929-39.744l18.526,36.091l-94.518,42.696l-14.937-39.047V469.918z" fill="#21d0c3"/><g><path d="M299.268,452.187l85.203-37.754l7.252,16.9l-85.198,37.754l-7.252-16.905L299.268,452.187z" fill="#ffffff"/><path d="M386.54,446.686c4.697-2.042,10.152,0.088,12.184,4.758c2.032,4.665-0.13,10.106-4.827,12.147   c-4.697,2.042-10.152-0.093-12.189-4.758C379.681,454.164,381.843,448.728,386.54,446.686z" fill="#ffffff"/><path d="M224.606,244.347l4.586,9.843l-15.103,6.827l-4.591-9.843   C205.886,243.428,221.789,236.347,224.606,244.347z M204.251,352.763L204.251,352.763l12.059,4.914l-6.096,15.594l-12.059-4.914   c-7.838-3.196-1.672-18.766,6.101-15.593h-0.005V352.763z" fill="#ffffff"/></g><rect x="164px" y="207px" width="61px" height="8px" fill="#eef3f7"/></g><g transform="matrix(0.1602276861667633 0 0 0.1602276861667633 239.9817123413086 6.981712341308594)" id="L1_5"><circle cx="256" cy="256" r="256" fill="#ecf0f1"/><circle cx="256" cy="256" r="256" fill="#fad24d"/><ellipse cx="256px" cy="421px" rx="182px" ry="14px" fill="#edb937"/><path d="M65.983,67.223H446.02c12.486,0,22.701,10.216,22.701,22.702v234.107H43.282V89.924  C43.282,77.439,53.498,67.223,65.983,67.223L65.983,67.223z" fill="#666666"/><path d="M58.696,308.616h394.608V89.924c0-3.978-3.309-7.287-7.286-7.287H65.982  c-3.977,0-7.286,3.309-7.286,7.287V308.616L58.696,308.616z" fill="#0f7986"/><path d="M468.72,324.031v24.828c0,12.488-11.259,22.702-25.025,22.702H68.307  c-13.764,0-25.025-10.214-25.025-22.702v-24.828H468.72L468.72,324.031z" fill="#ffffff"/><circle cx="256" cy="346" r="7" fill="#b6b6b8"/><path d="M305.066,407.273l36.096,11.566H170.837l29.124-11.566V371.56h105.105V407.273z" fill="#c2c2c4"/><path d="M305.066,407.273L199.961,371.56h105.105V407.273z" fill="#b0b0b0"/><path d="M199.961,407.273h105.105l36.096,11.566v4.981h-85.161h-85.164v-4.981L199.961,407.273  L199.961,407.273z" fill="#ecf0f1"/><path d="M208.582,110.96c26.189,0,47.419,15.158,47.419,42.328c0-27.169,21.232-42.328,47.42-42.328  s47.419,22.025,47.419,49.194c0,35.163-71.232,100.109-94.839,127.049c-23.606-26.938-94.839-91.886-94.839-127.049  C161.161,132.985,182.393,110.96,208.582,110.96z" fill="#ff5b62"/><g><path d="M114.103,198.26c-1.301,0-2.357-1.056-2.357-2.357c0-1.301,1.056-2.357,2.357-2.357h83.087   l15.061-36.495c0.493-1.2,1.867-1.773,3.067-1.281c0.616,0.253,1.066,0.737,1.291,1.31l0.006-0.002l22.931,57.888l20.15-34.119   c0.662-1.119,2.105-1.49,3.224-0.828c0.365,0.216,0.652,0.516,0.847,0.86l11.847,18.165l16.933-18.008   c0.889-0.945,2.378-0.99,3.324-0.102c0.18,0.169,0.325,0.358,0.44,0.562l0.002-0.001l6.763,12.063h119.071   c1.301,0,2.357,1.056,2.357,2.357s-1.056,2.357-2.357,2.357H301.699v-0.004c-0.822,0-1.622-0.434-2.053-1.203l-5.871-10.473   l-16.782,17.847l-0.001-0.001c-0.126,0.133-0.269,0.255-0.431,0.36c-1.088,0.706-2.545,0.397-3.251-0.691l-11.485-17.611   l-20.63,34.93c-0.255,0.468-0.669,0.853-1.203,1.064c-1.21,0.477-2.579-0.117-3.057-1.326l-22.56-56.951l-13.372,32.402   c-0.304,0.951-1.196,1.639-2.246,1.639L114.103,198.26L114.103,198.26z M263.769,180.88c0.403,0.71,0.427,1.61-0.019,2.363" fill="#fefefe"/><path d="M308.003,288.363c-0.651,0-1.179-0.528-1.179-1.179c0-0.651,0.528-1.179,1.179-1.179h19.463   l4.367-10.584c0.247-0.6,0.933-0.886,1.534-0.64c0.307,0.126,0.533,0.369,0.646,0.656l0.004-0.001l6.478,16.354l5.513-9.336   c0.33-0.559,1.053-0.744,1.612-0.414c0.177,0.105,0.316,0.249,0.414,0.414l3.197,4.901l4.634-4.928   c0.444-0.473,1.191-0.495,1.663-0.051c0.09,0.085,0.163,0.18,0.221,0.281l1.879,3.352h25.239c0.651,0,1.179,0.528,1.179,1.179   s-0.528,1.179-1.179,1.179h-25.926v-0.002c-0.412,0-0.812-0.217-1.027-0.601l-1.432-2.556l-4.559,4.849l-0.001-0.001   c-0.064,0.066-0.136,0.129-0.216,0.181c-0.543,0.352-1.274,0.198-1.626-0.345l-3.006-4.61l-5.74,9.72   c-0.126,0.246-0.338,0.447-0.614,0.555c-0.605,0.239-1.29-0.059-1.529-0.664l-6.293-15.885l-3.524,8.54   c-0.154,0.473-0.597,0.815-1.121,0.815h-20.25V288.363z" fill="#fefefe"/><path d="M395.579,272.886h42.361v3.009h-42.361V272.886z M395.579,298.112h25.636v3.009h-25.636V298.112z    M395.579,285.498h42.361v3.009h-42.361V285.498z" fill="#fefefe"/></g></g><g transform="matrix(0.18524852395057678 0 0 0.18524852395057678 151.57637786865234 -0.42362213134765625)" id="L1_6"><circle cx="256" cy="256" r="256" fill="#0f7986"/><path d="M261.424,77.707c98.47,0,178.293,79.823,178.293,178.293c0,98.467-79.823,178.293-178.293,178.293  c-98.467,0-178.293-79.826-178.293-178.293C83.132,157.53,162.958,77.707,261.424,77.707z" fill="#15bdb2"/><path d="M261.424,77.707c70.623,0,131.649,41.061,160.52,100.611c4.347,16.166,6.679,33.158,6.679,50.7  c0,107.582-87.213,194.796-194.799,194.796c-16.01,0-31.563-1.946-46.45-5.588C125.871,390.105,83.133,328.046,83.133,256  C83.133,157.529,162.959,77.707,261.424,77.707L261.424,77.707z" fill="#21d0c3"/><path d="M372.818,116.795c33.152,26.565,56.615,64.722,64.23,108.331c-0.536-0.828-1.086-1.909-1.639-3.516  c-3.481,1.142-3.595,1.233-7.706,1.92l-0.181,0.25c-1.635,2.329,0.083,1.342-2.791,3.772c-3.423,2.879-5.652,6.81-9.472,9.139  c-0.46,4.071,0.339,4.985-0.686,9.83c-0.402,1.784-2.397,6.583-4.74,6.219c-0.742-0.137-3.882-7.911-4.623-10.058  c-1.257-3.658-2.684-6.355-3.595-10.558c-0.513-2.244-0.859-6.536-1.371-8.047c-2.454,0.364-2.343,1.925-4.685,0.278  c-1.653-1.193-0.911-1.92-1.825-3.704c-1.939-1.828-3.938-3.657-5.933-5.486c-1.544-0.5-7.48,0.364-9.992,0.091  c-4.51-0.414-4.904-0.137-7.59-3.749c-4.74,0.233-4.341,2.011-8.964-1.965c-3.027-2.561-2.454-6.674-6.849-4.345  c-0.169,3.75,1.656,4.577,3.312,6.31c1.196,1.328,2.683,2.244,3.309,4.022c0.059,0.05,0.345,1.738,0.403,1.965  c4.28,0.278,5.307-1.779,7.647-3.516c2.286,2.147,0.056,2.515,3.368,4.204c2.624,1.328,2.112,0.551,3.822,2.697  c0.858,2.879-5.878,10.695-8.106,12.114c-1.711,1.096-2.624,0.455-4.165,1.733c-2.281,1.923,0.286,1.648-3.709,3.112  c-4.28,1.556-8.509,4.845-13.015,5.118c-0.972-2.652-1.942-5.345-2.911-8.044c-2.856-9.188-2.74-5.621-5.653-10.377  c-1.371-2.059-0.798-3.384-1.714-5.213c-0.63-1.369-1.596-1.965-2.454-3.653c-1.312-2.606-2.851-6.673-5.878-6.264  c-0.63,2.057,2.798,9.003,3.652,10.696c0.858,1.692,2.226,2.423,2.628,4.849c0.568,3.333-0.116,2.921,1.711,5.158  c3.826,4.617-0.17,3.8,5.767,8.321c4.45,3.384,3.309,4.389,5.195,8.917c2.911,0.818,11.586-3.061,13.07-1.919  c1.77,3.152-2.052,8.178-3.023,10.923c-3.197,9.188-8.793,9.051-13.072,16.089c-2.337,3.8-3.425,4.299-5.593,8.872  c-2.456,5.163,4.965,19.471,0.514,25.461c-0.971,1.368-4.11,2.193-8.048,6.355c-4.169,4.523,0.112,3.744-1.488,11.287  c-1.255,1.739-2.794,1.829-4.338,3.066c-0.569,1.779-0.112,3.193-1.083,5.391c-1.029,2.651-1.198,1.233-2.685,3.384  c-1.085,1.687-0.968,2.374-2.226,3.93c-1.085,1.419-1.656,1.824-2.681,2.743c-4.968,4.572-15.643,4.708-16.555,4.067  c-2.515-2.148-0.799-2.697-1.426-5.714c-0.611-2.652-2.018-4.871-3.194-6.919l-0.12-0.214c-0.568-1.001-1.086-1.966-1.371-2.879  c-2.056-6.491-1.309-11.424-4.906-18.006c-4.51-8.507,2.508-12.938,2.222-17.736c-0.113-1.279-0.568-2.056-0.685-3.066  c-0.854-5.3-1.367-10.053-4.906-14.216c-3.882-4.522-3.37-2.924-2.114-10.372c1.597-8.548-2.055-6.356-7.19-6.582  c-2.515-7.771-7.423-3.982-12.331-1.693c-3.082,1.414-4.224-0.41-7.709,0.091c-7.765,1.051-1.654,4.389-12.044-3.839  c-4.338-3.43-1.427-1.693-3.995-5.987c-0.855-1.556-3.483-3.612-4.683-5.168c-3.936-4.935,0.745-9.917,0.06-15.586  c-1.202-10.512-2.911-1.373,2.967-14.079c3.084-6.765,7.763-6.81,8.963-9.831c1.028-2.693,0.339-4.616,2.284-7.082  c1.712-2.011,4.167-1.602,5.137-4.754c1.367-3.885-1.257-4.385-4.11-4.481c-1.197-4.065-1.197-3.061-0.286-6.81  c0.515-2.102,0.057-3.112,0.515-5.214c1.141-5.254,10.103-0.04,12.674-2.193c1.197-2.238,1.369-4.431,0-6.582  c-1.431-2.147-3.31-1.874-4.282-3.93c2.169-1.46,0.569-0.183,2.455-0.597c2.225-0.5,1.938-1.141,4.563-1.642  c2.341-0.46,3.83-2.606,6.109-4.067c3.255-2.102,1.711-3.98,5.652-4.617c6.337-1.101,2.225-0.915,2.914-6.815  c0.964-0.364,1.879-0.779,2.794-1.189c1.999,2.608-0.512,1.556,1.883,3.29c0.629-0.364,1.369-0.729,2.056-1.093  c-0.343-2.838-1.654-2.288-2.512-5.805c-3.14,0.5-4.282,3.152-6.792,2.193c-2.455-0.915-2.569-4.435-2.455-7.361  c0.911-2.193,5.479-3.38,7.247-3.931c2.858-0.959,2.456-2.879,5.084-5.486c3.426-3.43,0.911,0.046,2.569-4.386  c3.769-0.141,1.999-0.275,4.224-1.418l0.113-0.045l0.229-0.092c1.315-0.597,3.027-0.732,4.741-1.323  c6.277-2.101,8.845-1.05,13.411,0.819c3.539,1.464,14.216,1.51,15.015,5.991c-2.569,2.693-5.023,0.728-8.733,0.958  c0.684,3.471,0.97,3.471,4.11,4.431c0.514-1.646-0.23-1,0.627-2.056c1.029,0.228,2.057,0.41,3.08,0.595  c1.033-3.521,2.229-3.015,5.714-3.429c-0.573-2.424-1.203-1.738,0.111-3.658c3.6,0.367,0.686,0.05,2.455,2.929  c2.511-0.321,4.967-3.112,8.448-3.475c2.17-0.229,2.058,0.595,5.137,0.273c2.513-0.273,2.397-1.189,4.913-0.137  c0.91-1.693,0-1.648,2.226-2.057c3.422-0.595,6.393,1.506,9.701,1.966c-2.45-3.016-4.793-2.426-1.769-7.452  c3.824-0.778,4.167-0.228,5.822,2.652C371.956,117.595,372.356,117.066,372.818,116.795L372.818,116.795z M87.301,217.55  c8.033-36.544,27.27-68.885,53.932-93.236c2.071,0.721,4.811,0.244,6.869,0.159c0.738-1.368,1.198-2.561,2.508-3.061  c0.515-0.182,1.145-0.227,1.998-0.182c0.115,0.682,0.286,1.369,0.457,2.056c0,0.051,0.116,0.504,0.06,0.415  c0.056-0.097,0.112,0.272,0.168,0.409c3.601-2.102,0.573-2.148,2.513-5.941c-3.027-0.597-2.625-0.233-4.511-2.153  c1.83-2.01,5.366-2.697,7.993-2.512c-0.174,1.829-1.027,1.785-0.342,3.335c2.056-1.279,3.481-4.705,6.792-4.067  c0.629,0.455,1.374,0.868,2.056,1.278c-1.714,1.602-4.28,1.693-6.505,2.606c-0.972,9.923,3.139,1.602,1.769,8.412  c2.454-0.182,4.855-1.965,5.764-3.794c-0.91-1.189-2.225-1.189-2.966-2.608c0.577-1.828,1.804-3.211,3.537-4.035  c1.174-0.56,2.579-0.855,4.168-0.855c18.153,0.138,9.53,0.959,15.129,3.522c1.253,0.545,3.478,0.822,4.224,1.919  c1.141,1.738,0.057,3.38,1.879,4.754c1.601,1.187,1.83-0.046,3.941,2.608c-0.455,1.505-1.543,3.06-3.765,3.107  c-3.082,0.045-1.257-2.058-4.569-1.739c0.059,3.106,3.142,4.299,0.284,5.987c-2.511,1.51-0.915-0.546-2.796,0.504  c-0.058,0.046-0.231,0.137-0.287,0.183c-0.112,0.09-0.227,0.227-0.285,0.318c-0.343,0.367-0.63,0.686-0.912,1.009  c-4.566-1.238-3.707-0.686-6.449-3.703c-1.028-1.142-1.197-1.419-3.026-1.278c-1.141,0.04-2.624,0.541-3.713-0.461  c2.231-2.788,3.314-0.09,6.566-1.738c0.573-0.277,4.168-3.061,4.741-3.703c-0.971-2.193-0.117-0.367-1.541-1.784  c-3.201-3.243-4.115-2.424-8.449-2.424c-2.032,2.338-3.553,5.228-5.764,6.497c-1.335,0.769-2.924,0.942-5.026,0.045  c0.971,3.93,3.478,0.915,3.709,5.668c-1.654-0.323-2.512-1.146-4.224-0.551c-3.653,1.369-0.399,1.233-0.113,1.966  c0,0.045,1.712,0.227,0,0.867c-1.887,0.684-0.286-0.367-3.939-2.514c0.513-0.915,1.029-1.869,1.541-2.834  c-2.968,0.915-6.68,2.378-10.158,4.067c-3.941,1.966-7.654,4.208-9.878,6.264c-0.058,3.431,0.571,1.142,0.913,5.215  c5.31,0.317,3.595,1.913,8.906,3.424c1.027,0.278,2.341,0.551,3.94,0.824c0,2.56-2.286,4.48-0.689,7.133  c3.711,2.602,3.826-2.469,4.74-5.714c12.564-2.625,6.51-6.32,9.757-13.229c0.487-1.033,1.178-2.133,2.176-3.321  c0.966,0.045,4.904,0.46,5.763,0.642c2.855,0.501,1.314,1.187,4.396,2.557c-0.059,2.469-1.313,5.669,2.339,5.077  c2.796-0.501,2.173-2.698,5.594-3.249c1.539,3.613,1.14,5.169,1.825,9.507c8.222,3.203,4.566,5.806,2.967,11.796  c1.03,0.5,2.111,0.961,3.199,1.415c-0.056,1.738-0.116,3.429-0.172,5.122c-0.17,0-8.793-1.879-9.364-2.056  c1.314-3.753,3.712-3.795,5.255-7.634c-3.081,0.546-2.857,1.505-5.082,2.193c-1.996,0.597-3.539,0.182-5.651,0.46  c-0.743,2.466-0.058-2.153,0.174,1c0.113,1.193,0.686,0.051-0.117,1.328c-2.855-1.328-1.882-4.434-7.193-1.555  c1.199,0.551,2.396,1.05,3.653,1.555c-0.17,3.516-0.455,0.865-1.197,3.199c-1.83,5.987,4.966,2.284,6.736,1.965  c-0.46,3.157-2.398,3.157-5.141,4.022c-3.022,0.913-3.936,2.151-6.336,2.702c0-3.753-0.568-0.597,1.086-3.203  c-2.4,0.227-4.169,1.323-6.45,2.288l-0.228,0.086c-2.934,1.197-3.378,1.374-3.712,5.122c-2.511,0.774-5.421,1.648-7.19,3.477  c-1.77,1.687-3.54,3.378-5.256,5.025c-0.17,0.137-0.285,0.273-0.395,0.364c0.629,4.709,0,4.8-2.857,6.633  c-2.398,1.551-3.198,1.506-5.422,3.471c-7.134,6.4-3.71,3.425-3.314,14.444c-1.483-0.455-2.91-0.959-4.278-1.46  c-1.087-7.316,0.397-4.89-5.481-6.582c-6.336-1.829-5.481,1.277-8.106,1.828c-2.91,0.637-4.341-2.652-8.565,0.091  c-2.338,1.597-4.564,2.649-5.136,5.482c-0.685,3.43-2.226,5.939-1.998,9.739c0.402,10.286,9.761,10.877,12.16,6.078  c1.596-3.198,1.2-4.935,6.394-4.113c0.515,2.745-0.286,4.754-0.972,6.856c-0.455,1.233-1.713,3.471-1.083,5.168  c3.712,1.506,3.824-1.328,8.735,1.597c0.343,4.89-2.226,10.376,1.541,13.21c2.91,2.148,3.082,0.228,5.65-0.228  c2.857-0.5,2.343,1.279,4.971,1.692c1.483-1.828,0.854-0.685,1.827-2.929c1.712-3.879,2.168-2.056,6.222-4.429  c0.396-0.228,0.738-0.46,1.141-0.732c0.456,0.958,0.97,1.873,1.424,2.788c2.969-3.521,3.313-0.092,6.738,0.868  c1.475,0.404,2.522,0.551,3.331,0.559c2.491,0.038,2.745-1.173,6.143,0.033c0.402,0.187,0.916,0.323,1.374,0.458  c0.058,0,0.227,0.092,0.227,0.183c0.06,0.046,0.229,0.182,0.285,0.231c0.568,0.638,0.63,1.279,1.086,1.966  c2.342,2.238,4.683,4.48,6.964,6.673c4.507,1.784,4.507-1.555,9.647,3.425c2.168,2.057,1.197,2.016,2.397,4.663  c0.174,0.414,0.513,0.822,0.743,1.328c0.455,1.233,0.97,2.42,1.485,3.607c2.338,3.067,5.535,1.147,8.789,4.301  c1.882,1.827,0.46,1.277,4.623,2.01c6.452,1.05,3.943,0.458,8.853,4.162c1.881,1.369,2.337,0.592,4.108,1.779  c2.454,3.43,1.824,7.134-0.227,10.149c-6.337,9.234-4.168,7.725-4.454,15.04c-0.23,4.204-1.427,12.888-5.369,13.938  c-14.327,4.027-5.995,6.816-9.759,13.899c-1.086,2.014-1.886,2.515-2.572,4.115c-2.851,6.669-0.854,8.913-9.303,7.407  c0.801,1.415,0.285,0.455,1.088,1.734c2.507,3.885,2.91,6.815-2.231,7.769c-4.28,0.824-2.454,0-2.853,4.754  c-1.656,0.688-2.397,0-3.482,1.096c1.483,2.745,0.113,0.46,2.628,2.016c-0.46,1.506-0.801,2.97-1.202,4.431  c-0.968,3.567-1.255,0.278-1.596,4.435c1.483,0.682,2.512,0.546,3.822,2.332c-0.17,1.369-1.539,5.117-1.939,7.266  c2.112,3.157,3.827,6.537,8.336,6.861c-0.059,2.646,0.568,2.374-1.714,2.919c-1.941,0.458-6.049-1.369-7.767-2.284  c-2.967-1.602-5.708-3.704-7.703-6.719c-1.141-1.693-0.685-0.868-1.886-2.466c-2.169-2.789-1.31-4.071-1.939-5.946  c-0.343-1.095-2.112-2.284-1.371-5.849c0.172-1.005,1.771-5.805-0.169-4.981c-1.942,0.779,1.482,0.455-1.202,1.738  c-0.63-1.738-1.141-4.298-1.484-6.445c-0.685-3.613-1.541-3.75-1.942-5.942c-0.855-5.076,1.314-5.626-1.085-14.083  c-1.575-5.594-0.942-18.841-2.606-25.638c-0.265-1.082-0.591-2.001-0.989-2.703c-1.541-2.556-5.311-3.744-8.333-5.805  c-0.172-0.04-0.286-0.091-0.342-0.182c-4.168-2.925-8.107-14.399-11.42-18.691c-1.539-2.062-2.511-1.147-3.197-4.39  c-0.741-2.97,0.399-2.465,1.371-4.94c-5.079-9.322,6.566-9.185,4.168-20.384c-0.513-2.056-1.994-4.935-3.254-5.846  c-2.398,1.05-1.257,1.642-2.514,3.653c-1.94-1.096-3.881-2.197-5.764-3.289c-5.881-5.669-2.742-1.556-4.394-5.26  c-3.539-7.771-6.909-3.424-11.132-7.265c-1.887-1.601-2.229-4.116-5.367-3.658c-4.735,0.637-2.111,1.369-7.02-0.918  c-4.168-1.966-8.506-4.25-11.419-6.902c-0.154-5.549,1.536-5.015-2.685-10.137L87.301,217.55z M143.195,122.56  c1.08-0.957,2.172-1.901,3.275-2.832l0.09,0.181c0.226,0.364,0.398,0.364,0.63,1.323  C144.297,121.936,144.299,122.414,143.195,122.56z M295.778,175.565c1.578,1.009,3.515,1.778,4.683,2.801  c1.484,4.068-0.398,2.103,2.512,6.356c1.656,2.284,1.313,3.93,3.023,5.209c3.144-0.41,0.402,0.504,2.341-1.414  c0.344-0.365,1.314-1.511,1.596-1.965c-1.024-1.556-1.653-1.693-2.564-3.295c3.535-4.703,5.079-2.01,5.933,1.101  c2.229,8.639,5.651,6.122,8.509,5.71c2.909-0.41,0.395,0.094,3.022,0.778c2.512,0.641,1.31,0,3.081-0.455  c5.993-1.465,1.373,10.148,0.745,11.427c-3.254,0.409-2.625-0.318-4.971-0.551c-4.737-0.5,0.286,2.838-10.9-0.824  c-10.734-3.424-8.449-4.204-10.677,3.249c-2.454-0.182-2.337-0.642-4.62-1.414c-0.872-0.332-1.374-0.509-1.717-0.61l-0.113-0.037  c-0.911-0.318,0-0.041-1.882-1.824c-1.658-1.556-5.709-1.92-8.566-3.43c0-2.466,2.169-4.522-0.456-7.45  c-0.854-0.228-13.016,0.278-14.954,0.688c-3.937,0.822-4.627,4.158-10.049,3.429c-2.967-0.414-1.938-0.136-2.684-1.874  c0.971-0.958,0-0.458,1.66-1.05c0.626-0.228,0.855-0.137,1.483-0.228c8.789-1.327,4.279-5.764,9.76-10.012  c4.566-3.658,0.971,0.046,3.483-4.389c3.082-0.273,2.683,1.232,5.31-0.046c2.173-1.096,1.483-2.056,4.566-2.151  c2.741,2.747,2.168,4.39,6.622,6.491c1.77,0.827,2.852,1.283,3.993,2.794c2.056,2.924,0.286,1.965,1.089,3.976  c0.17-0.092,0.395-0.188,0.625-0.273l0.113-0.056c2.4-1.146-1.199-1.509,2.683-4.93c-1.138-0.822-1.966-1.401-2.683-1.81  l-0.113-0.063c-3.023-1.78-1.825-0.138-5.708-4.981c-1.029-1.374-1.314-1.462-1.255-3.567c2.794-0.501,3.31,1.509,5.821,3.749  c0.342,0.323,0.742,0.595,1.141,0.868L295.778,175.565L295.778,175.565z M356.744,298.631c-2.507,1.277-2.853,4.207-4.737,5.851  c-2.056,1.874-4.797,1.01-5.596,4.48c-1.027,4.341,1.714,3.016-1.313,8.685c-1.082,2.101-1.141,7.356,0.516,8.915  c4.965,4.796,7.65-7.314,8.79-11.108c0.854-2.697,1.656-5.76,2.569-8.275C357.889,304.481,359.198,302.106,356.744,298.631z   M348.526,171.097c0.398,5.583,3.707,7.73,6.053,10.286c-0.286,2.652-0.915,1.965-0.858,5.669c2.798,2.016,4.85,3.244,8.504,2.242  c0.513-4.479-0.913-4.253-2.283-7.314c0.228-0.369,0.854-0.822,0.968-0.915c1.029-1.369,0.517,0.546,1.029-1.784  c-2.682-0.864-7.022-3.611-7.362-7.219c1.31-1.05,0.911-0.414,1.879-1.05c2.112-1.374,0.516,0.727,1.77-1.602  c-1.08-2.102-2.283-2.471-4.906-1.419C352.18,168.451,349.153,170.597,348.526,171.097z M325.177,172.562  c-1.77-2.465-1.656-3.703-5.082-3.794c-1.367,1.464-2.967,3.658-3.709,5.894c-1.141,3.384-0.343,1.052-0.229,4.709  c-0.058,0.137,0,0.321,0,0.46c-0.058,2.192-0.573-0.414-0.231,1.6c2.685-0.549,0.631-0.504,2.628-1.146  c1.885-0.641,7.651-2.378,9.308-1.965c3.936,0.915,7.25,4.027,11.703,0.915c-0.232-3.976-5.026-5.486-8.336-7.224  c0.172-3.654,1.141-0.774,0.911-4.296c-1.141-0.045-1.825-0.228-2.91,0.229c-2.567,1.141-1.142,1.464-1.142,1.873  c0.116,1.965,2.57-0.409-0.056,2.016C327.29,172.471,326.09,172.471,325.177,172.562L325.177,172.562z M258.5,144.864  c-0.109,6.4,2.112,4.249,4.225,7.405c-0.968,2.698-1.14,0.597-2.222,3.38c-0.971,2.332,0.228,0.233-0.403,4.299  c1.658,0.091,4.109-0.501,6.281-0.688c3.085-0.273,3.027-0.551,4.112-3.703c-1.712-2.102-3.425-4.204-5.195-6.306  c-2.231-3.385,0-1.056-0.685-3.89c-0.514-1.005-0.972-2.006-1.427-3.016C260.217,143.357,260.503,143.081,258.5,144.864  L258.5,144.864z" fill="#ffffff"/><circle cx="106" cy="189" r="34" fill="#ff5b62"/><path d="M100.185,166.685h12.339v16.551h16.551v12.339h-16.551v16.551h-12.339v-16.551H83.635v-12.339h16.551  V166.685z" fill="#ffffff"/><circle cx="305" cy="230" r="32" fill="#ff5b62"/><path d="M299.383,209.403h11.514v15.442h15.442v11.515h-15.442v15.442h-11.514v-15.443h-15.442v-11.515  h15.442L299.383,209.403L299.383,209.403z" fill="#ffffff"/><circle cx="388" cy="137" r="38" fill="#ff5b62"/><path d="M381.269,112.432h13.623v18.27h18.27v13.623h-18.27v18.271h-13.623v-18.271h-18.27v-13.623h18.27  V112.432z" fill="#ffffff"/><circle cx="158" cy="325" r="27" fill="#ff5b62"/><path d="M153.899,307.185h9.714v13.03h13.03v9.714h-13.03v13.03h-9.714v-13.03h-13.03v-9.714h13.03V307.185z" fill="#ffffff"/><circle cx="425" cy="218" r="15" fill="#ff5b62"/><path d="M422.348,208.132h5.457v7.319h7.318v5.456h-7.318v7.319h-5.457v-7.319h-7.319v-5.456h7.319V208.132z" fill="#ffffff"/></g></defs><g fi:class="KUsePattern"><pattern id="pattern_L1_3" width="350" height="350" patternUnits="userSpaceOnUse"><use xlink:href="#L1_3" x="-350" y="-350"/><use xlink:href="#L1_3" x="0" y="-350"/><use xlink:href="#L1_3" x="350" y="-350"/><use xlink:href="#L1_3" x="-350" y="0"/><use xlink:href="#L1_3" x="0" y="0"/><use xlink:href="#L1_3" x="350" y="0"/><use xlink:href="#L1_3" x="-350" y="350"/><use xlink:href="#L1_3" x="0" y="350"/><use xlink:href="#L1_3" x="350" y="350"/></pattern><rect x="0" y="0" width="100%" height="100%" fill="url(#pattern_L1_3)"/></g><g fi:class="KUsePattern"><pattern id="pattern_L1_5" width="350" height="350" patternUnits="userSpaceOnUse"><use xlink:href="#L1_5" x="-350" y="-350"/><use xlink:href="#L1_5" x="0" y="-350"/><use xlink:href="#L1_5" x="350" y="-350"/><use xlink:href="#L1_5" x="-350" y="0"/><use xlink:href="#L1_5" x="0" y="0"/><use xlink:href="#L1_5" x="350" y="0"/><use xlink:href="#L1_5" x="-350" y="350"/><use xlink:href="#L1_5" x="0" y="350"/><use xlink:href="#L1_5" x="350" y="350"/></pattern><rect x="0" y="0" width="100%" height="100%" fill="url(#pattern_L1_5)"/></g><g fi:class="KUsePattern"><pattern id="pattern_L1_6" width="350" height="350" patternUnits="userSpaceOnUse"><use xlink:href="#L1_6" x="-350" y="-350"/><use xlink:href="#L1_6" x="0" y="-350"/><use xlink:href="#L1_6" x="350" y="-350"/><use xlink:href="#L1_6" x="-350" y="0"/><use xlink:href="#L1_6" x="0" y="0"/><use xlink:href="#L1_6" x="350" y="0"/><use xlink:href="#L1_6" x="-350" y="350"/><use xlink:href="#L1_6" x="0" y="350"/><use xlink:href="#L1_6" x="350" y="350"/></pattern><rect x="0" y="0" width="100%" height="100%" fill="url(#pattern_L1_6)"/></g><g fi:class="KUsePattern"><pattern id="pattern_L1_0" width="350" height="350" patternUnits="userSpaceOnUse"><use xlink:href="#L1_0" x="-350" y="-350"/><use xlink:href="#L1_0" x="0" y="-350"/><use xlink:href="#L1_0" x="350" y="-350"/><use xlink:href="#L1_0" x="-350" y="0"/><use xlink:href="#L1_0" x="0" y="0"/><use xlink:href="#L1_0" x="350" y="0"/><use xlink:href="#L1_0" x="-350" y="350"/><use xlink:href="#L1_0" x="0" y="350"/><use xlink:href="#L1_0" x="350" y="350"/></pattern><rect x="0" y="0" width="100%" height="100%" fill="url(#pattern_L1_0)"/></g></svg>