<?xml version="1.0" standalone="no"?><!-- Generator: Gravit.io --><svg xmlns="http://www.w3.org/2000/svg" xmlns:xlink="http://www.w3.org/1999/xlink" style="isolation:isolate" viewBox="0 0 245 90" width="245" height="90"><defs><clipPath id="_clipPath_lQs12h1AoxXPJ61iDhG5LHEXOneKj66b"><rect width="245" height="90"/></clipPath></defs><g clip-path="url(#_clipPath_lQs12h1AoxXPJ61iDhG5LHEXOneKj66b)"><g transform="matrix(1,0,0,1,6.9,70.429)"><text transform="matrix(1,0,0,1,108.893,19.239)" style="font-family:'Open Sans';font-weight:700;font-size:18px;font-style:normal;fill:#0bac8b;stroke:none;">ONCO </text><text transform="matrix(1,0,0,1,168.325,19.239)" style="font-family:'Open Sans';font-weight:700;font-size:18px;font-style:normal;fill:#4e2161;stroke:none;">minus</text></g><g transform="matrix(1,0,0,1,158.5,-2)"><text transform="matrix(1,0,0,1,1.5,74.67)" style="font-family:'Open Sans';font-weight:700;font-size:93px;font-style:normal;fill:#0bac8b;stroke:none;">M</text></g><rect x="6.9" y="9" width="164.1" height="59" transform="matrix(1,0,0,1,0,0)" fill="none" vector-effect="non-scaling-stroke" stroke-width="8" stroke="rgb(11,172,139)" stroke-linejoin="miter" stroke-linecap="square" stroke-miterlimit="2"/><rect x="162" y="29.365" width="20" height="17.27" transform="matrix(1,0,0,1,0,0)" fill="rgb(255,255,255)"/><g transform="matrix(1,0,0,1,13.9,5.061)"><text transform="matrix(1,0,0,1,0,51.305)" style="font-family:'Open Sans';font-weight:800;font-size:48px;font-style:normal;letter-spacing:-2;fill:#4e2161;stroke:none;">ONCO</text></g><line x1="162" y1="38" x2="177" y2="38" vector-effect="non-scaling-stroke" stroke-width="8" stroke="rgb(78,33,97)" stroke-linejoin="miter" stroke-linecap="square" stroke-miterlimit="3"/></g></svg>