<?xml version="1.0" standalone="no"?><!-- Generator: Gravit.io --><svg xmlns="http://www.w3.org/2000/svg" xmlns:xlink="http://www.w3.org/1999/xlink" style="isolation:isolate" viewBox="0 0 125.74 162.096" width="125.74" height="162.096"><defs><clipPath id="_clipPath_O0GhWV6B6igtujjhC1ddoLI94uA2X6HG"><rect width="125.74" height="162.096"/></clipPath></defs><g clip-path="url(#_clipPath_O0GhWV6B6igtujjhC1ddoLI94uA2X6HG)"><g><g><path d=" M 1 144.035 L 1 18.06 C 1 8.653 8.655 1 18.063 1 L 107.68 1 C 117.088 1 124.74 8.653 124.74 18.06 L 124.74 144.035 C 124.74 153.443 117.088 161.096 107.68 161.096 L 18.061 161.096 C 8.653 161.096 1 153.443 1 144.035 Z  M 107.681 5.002 L 18.063 5.002 C 10.862 5.002 5.003 10.862 5.005 18.061 L 5.005 144.036 C 5.005 151.235 10.862 157.094 18.063 157.094 L 107.681 157.094 C 114.88 157.094 120.739 151.237 120.739 144.036 L 120.739 18.061 C 120.739 10.862 114.882 5.002 107.681 5.002 Z " fill-rule="evenodd" fill="rgb(11,172,139)" style="mix-blend-mode:hue;:undefined;" vector-effect="non-scaling-stroke" stroke-width="2" stroke="rgb(11,172,139)" stroke-linejoin="miter" stroke-linecap="butt" stroke-miterlimit="4"/><mask id="_mask_xTKfXvF53vgiwFkyMMSGVb80HUDyS17Q"><path d=" M 23.348 116.055 L 102.396 116.055 C 103.503 116.055 104.398 115.057 104.398 113.822 C 104.398 112.587 103.503 111.588 102.396 111.588 L 23.348 111.588 C 22.241 111.588 21.347 112.587 21.347 113.822 C 21.347 115.057 22.243 116.055 23.348 116.055 L 23.348 116.055 Z " fill="white" style="mix-blend-mode:hue;" stroke="none"/></mask><path d=" M 23.348 116.055 L 102.396 116.055 C 103.503 116.055 104.398 115.057 104.398 113.822 C 104.398 112.587 103.503 111.588 102.396 111.588 L 23.348 111.588 C 22.241 111.588 21.347 112.587 21.347 113.822 C 21.347 115.057 22.243 116.055 23.348 116.055 L 23.348 116.055 Z " fill="rgb(11,172,139)" style="mix-blend-mode:hue;:undefined;" mask="url(#_mask_xTKfXvF53vgiwFkyMMSGVb80HUDyS17Q)" vector-effect="non-scaling-stroke" stroke-width="2" stroke="rgb(11,172,139)" stroke-linejoin="miter" stroke-linecap="butt" stroke-miterlimit="4"/><mask id="_mask_OL2EFPQYRVInnD4vEVPzGNG2eGin53WC"><path d=" M 23.348 131.617 L 102.396 131.617 C 103.503 131.617 104.398 130.619 104.398 129.383 C 104.398 128.148 103.503 127.15 102.396 127.15 L 23.348 127.15 C 22.241 127.15 21.347 128.148 21.347 129.383 C 21.347 130.619 22.243 131.617 23.348 131.617 L 23.348 131.617 Z " fill="white" style="mix-blend-mode:hue;" stroke="none"/></mask><path d=" M 23.348 131.617 L 102.396 131.617 C 103.503 131.617 104.398 130.619 104.398 129.383 C 104.398 128.148 103.503 127.15 102.396 127.15 L 23.348 127.15 C 22.241 127.15 21.347 128.148 21.347 129.383 C 21.347 130.619 22.243 131.617 23.348 131.617 L 23.348 131.617 Z " fill="rgb(11,172,139)" style="mix-blend-mode:hue;:undefined;" mask="url(#_mask_OL2EFPQYRVInnD4vEVPzGNG2eGin53WC)" vector-effect="non-scaling-stroke" stroke-width="4" stroke="rgb(11,172,139)" stroke-linejoin="miter" stroke-linecap="butt" stroke-miterlimit="4"/><path d=" M 53.771 61.699 L 61.467 61.699 L 61.467 69.396 C 61.467 70.503 62.362 71.397 63.469 71.397 C 64.575 71.397 65.47 70.503 65.47 69.396 L 65.47 61.699 L 73.165 61.699 C 74.271 61.699 75.166 60.805 75.166 59.698 C 75.166 58.592 74.271 57.697 73.165 57.697 L 65.47 57.697 L 65.47 50 C 65.47 48.894 64.575 47.999 63.469 47.999 C 62.362 47.999 61.467 48.894 61.467 50 L 61.467 57.697 L 53.771 57.697 C 52.664 57.697 51.769 58.592 51.769 59.698 C 51.769 60.805 52.666 61.699 53.771 61.699 L 53.771 61.699 Z " fill="rgb(11,172,139)" style="mix-blend-mode:hue;:undefined;" vector-effect="non-scaling-stroke" stroke-width="1" stroke="rgb(11,172,139)" stroke-linejoin="miter" stroke-linecap="butt" stroke-miterlimit="4"/><path d=" M 63.469 91.138 C 63.206 91.138 62.942 91.088 62.696 90.984 C 61.529 90.495 34.038 78.766 29.007 56.162 C 25.973 42.53 33.384 32.824 41.555 29.576 C 49.572 26.39 57.903 29.037 63.469 36.31 C 69.032 29.039 77.359 26.394 85.378 29.576 C 93.549 32.822 100.964 42.528 97.928 56.164 C 92.893 78.768 65.408 90.495 64.241 90.984 C 63.995 91.088 63.731 91.138 63.469 91.138 Z  M 48.335 32.269 C 46.452 32.269 44.647 32.654 43.032 33.296 C 36.39 35.934 30.39 43.945 32.916 55.29 C 37.048 73.863 59.046 84.896 63.469 86.941 C 67.889 84.896 89.885 73.863 94.019 55.29 C 96.545 43.943 90.545 35.932 83.899 33.292 C 78.36 31.093 70.531 31.933 65.188 40.901 C 64.463 42.111 62.47 42.111 61.747 40.901 C 57.959 34.545 52.922 32.269 48.335 32.269 Z " fill-rule="evenodd" fill="rgb(11,172,139)" style="mix-blend-mode:hue;:undefined;" vector-effect="non-scaling-stroke" stroke-width="1" stroke="rgb(11,172,139)" stroke-linejoin="miter" stroke-linecap="butt" stroke-miterlimit="4"/></g></g></g></svg>