<svg xmlns="http://www.w3.org/2000/svg" xmlns:xlink="http://www.w3.org/1999/xlink" xmlns:fi="http://pattern.flaticon.com/" x="0" y="0" width="1440" height="400" viewBox="0 0 350.00000000000006 97.22222222222223"><rect x="0px" y="0px" width="100%" height="100%" opacity="1" fill="#ffffff"/><defs><g transform="matrix(0.15528620071595625 0.024956711001478053 -0.024956711001478053 0.15528620071595625 202.64896741342886 3.9210448026750555)" id="L1_0"><circle cx="255" cy="255" r="255" fill="#21d0c3"/><rect x="61px" y="68px" width="325px" height="422px" fill="#ff5b62"/><path d="M72.807,83.594 365.28,83.594 375.195,479.038 82.721,479.038z" fill="#dce3db"/><rect x="77px" y="83px" width="287px" height="385px" fill="#ffffff"/><path d="M186.259,58.687h78.761c5.671,0,10.314,4.64,10.314,10.314v33.853h-99.388V69.001  C175.945,63.33,180.586,58.687,186.259,58.687z" fill="#666666"/><path d="M173.816,100.299H277.46c2.194,0,3.971,1.778,3.971,3.97l0,0c0,2.193-1.778,3.97-3.971,3.97H173.816  c-2.194,0-3.971-1.778-3.971-3.97l0,0C169.844,102.076,171.623,100.299,173.816,100.299z" fill="#b0b0b0"/><path d="M215.28,48.41l-8.384,51.885h-4.315l8.36-51.755c-2.376-3.298-3.586-7.25-3.586-11.129  c0-2.486,0.496-4.955,1.495-7.213c1.012-2.282,2.539-4.346,4.588-6.001c6.523-5.265,17.836-5.27,24.362-0.003  c2.056,1.661,3.588,3.733,4.603,6.02c1.005,2.267,1.503,4.743,1.503,7.24c0,3.866-1.199,7.804-3.567,11.087l8.36,51.757h-4.315  l-8.384-51.885c-0.126-0.659,0.068-1.303,0.472-1.776c2.12-2.652,3.192-5.943,3.192-9.183c0-1.922-0.377-3.814-1.139-5.532  c-0.751-1.692-1.875-3.216-3.378-4.427c-4.96-4.003-14.098-3.995-19.056,0.003c-1.498,1.207-2.615,2.726-3.362,4.409  c-0.759,1.708-1.131,3.594-1.131,5.505c0,3.274,1.097,6.605,3.25,9.275C215.254,47.191,215.39,47.822,215.28,48.41L215.28,48.41z" fill="#fefefe"/><g><path d="M190.844,196.798h149.923v3.791H190.844V196.798z M190.844,233.369h93.526v3.791h-93.526V233.369z    M190.844,215.084h149.923v3.791H190.844V215.084z" fill="#c2c2c4"/><path d="M190.844,293.96h149.923v3.791H190.844V293.96z M190.844,330.53h93.526v3.791h-93.526V330.53z    M190.844,312.245h149.923v3.791H190.844V312.245z" fill="#c2c2c4"/><path d="M190.844,391.121h149.923v3.791H190.844V391.121z M190.844,427.691h93.526v3.791h-93.526V427.691z    M190.844,409.406h149.923v3.791H190.844V409.406z" fill="#c2c2c4"/></g><g><path d="M125.447,188.767c7.791,0,14.844,3.158,19.948,8.263l-0.003,0.003   c5.107,5.11,8.268,12.163,8.268,19.945c0,7.791-3.158,14.844-8.263,19.948c-5.104,5.104-12.157,8.263-19.948,8.263   c-7.783,0-14.836-3.161-19.945-8.268l-0.005,0.005c-5.104-5.104-8.263-12.16-8.263-19.948c0-7.78,3.158-14.833,8.263-19.94   l0.005-0.005l0.005-0.003c5.107-5.104,12.16-8.263,19.94-8.263H125.447z M142.419,200.006c-4.344-4.343-10.345-7.029-16.971-7.029   c-6.634,0-12.635,2.684-16.971,7.022l-0.011,0.008c-4.336,4.339-7.022,10.337-7.022,16.971c0,6.626,2.689,12.627,7.032,16.971   v0.011c4.336,4.336,10.338,7.022,16.971,7.022c6.626,0,12.627-2.689,16.971-7.032c4.343-4.344,7.029-10.345,7.029-16.971   c0-6.634-2.684-12.632-7.022-16.971h-0.006V200.006z" fill="#15bdb2"/><path d="M125.447,285.931c7.791,0,14.844,3.156,19.948,8.263l-0.003,0.003   c5.107,5.11,8.268,12.163,8.268,19.945c0,7.791-3.158,14.844-8.263,19.948c-5.104,5.104-12.157,8.263-19.948,8.263   c-7.783,0-14.836-3.161-19.945-8.268l-0.005,0.005c-5.104-5.104-8.263-12.16-8.263-19.948c0-7.78,3.158-14.833,8.263-19.94   l0.005-0.005l0.005-0.003c5.107-5.104,12.16-8.263,19.94-8.263H125.447z M142.419,297.171c-4.344-4.343-10.345-7.029-16.971-7.029   c-6.634,0-12.635,2.684-16.971,7.022l-0.011,0.008c-4.336,4.339-7.022,10.337-7.022,16.971c0,6.626,2.689,12.627,7.032,16.971   v0.008c4.336,4.335,10.338,7.022,16.971,7.022c6.626,0,12.627-2.689,16.971-7.029c4.343-4.343,7.029-10.345,7.029-16.971   c0-6.634-2.684-12.632-7.022-16.971h-0.006V297.171z" fill="#15bdb2"/><path d="M125.447,383.093c7.791,0,14.844,3.156,19.948,8.263l-0.003,0.005   c5.107,5.107,8.268,12.16,8.268,19.943c0,7.791-3.158,14.844-8.263,19.948c-5.104,5.104-12.157,8.263-19.948,8.263   c-7.783,0-14.836-3.161-19.945-8.268l-0.005,0.005c-5.104-5.104-8.263-12.157-8.263-19.948c0-7.78,3.158-14.833,8.263-19.94   l0.005-0.003l0.005-0.005c5.107-5.104,12.16-8.263,19.94-8.263H125.447z M142.419,394.332c-4.344-4.343-10.345-7.029-16.971-7.029   c-6.634,0-12.635,2.684-16.971,7.022l-0.011,0.008c-4.336,4.339-7.022,10.338-7.022,16.971c0,6.626,2.689,12.627,7.032,16.971   v0.008c4.336,4.339,10.338,7.022,16.971,7.022c6.626,0,12.627-2.689,16.971-7.029c4.343-4.343,7.029-10.345,7.029-16.971   c0-6.634-2.684-12.632-7.022-16.971h-0.006V394.332z" fill="#15bdb2"/></g><g><path d="M110.19,219.92c-1.036-0.792-1.236-2.275-0.443-3.311c0.792-1.036,2.277-1.236,3.313-0.443   l8.15,6.246l12.942-17.527c0.776-1.049,2.256-1.267,3.305-0.49c1.047,0.776,1.267,2.259,0.488,3.305l-14.322,19.402l-0.063,0.084   c-0.792,1.036-2.277,1.236-3.313,0.443l-10.056-7.706C110.19,219.923,110.19,219.92,110.19,219.92z" fill="#ff5b62"/><path d="M111.803,318.042c-1.036-0.792-1.236-2.277-0.443-3.313c0.792-1.036,2.277-1.236,3.313-0.443   l8.15,6.246l12.942-17.53c0.776-1.047,2.256-1.267,3.305-0.488c1.047,0.776,1.267,2.259,0.488,3.305l-14.322,19.402l-0.063,0.084   c-0.792,1.036-2.277,1.236-3.313,0.443L111.803,318.042z" fill="#ff5b62"/><path d="M111.803,415.206c-1.036-0.792-1.236-2.275-0.443-3.31c0.792-1.036,2.277-1.236,3.313-0.443   l8.15,6.246l12.942-17.53c0.776-1.047,2.256-1.267,3.305-0.488c1.047,0.776,1.267,2.259,0.488,3.305l-14.322,19.402l-0.063,0.084   c-0.792,1.036-2.277,1.236-3.313,0.443l-10.056-7.706V415.206z" fill="#ff5b62"/></g><rect x="417px" y="105px" width="24px" height="123px" fill="#0f7986"/><g><path d="M417.928,228.857h24.837l-7.754,24.501h-9.328l-7.754-24.501H417.928z" fill="#ff5b62"/><path d="M423.794,24.195h13.107c3.772,0,6.86,3.087,6.86,6.86v73.995c0,0.197-0.158,0.351-0.351,0.351   h-26.12c-0.194,0-0.351-0.158-0.351-0.351V31.054c0-3.772,3.087-6.86,6.86-6.86C423.798,24.195,423.794,24.195,423.794,24.195z" fill="#ff5b62"/></g><path d="M443.757,31.054v74.013c-0.011,0.181-0.152,0.325-0.333,0.333h-0.018h-3.158V25.073  C442.337,26.251,443.757,28.496,443.757,31.054z" fill="#ed4c54"/><path d="M427.962,253.356h4.772v11.41c0,1.314-1.073,2.384-2.384,2.384h-0.003  c-1.311,0-2.384-1.07-2.384-2.384V253.356z" fill="#eef3f7"/><path d="M416.934,31.447h32.239h1.739v1.83V111v0.711l-0.467,0.533l-3.066,3.483  c-1.471,1.308-3.982-0.695-2.539-2.489l2.597-2.951V35.109h-30.503v-3.665L416.934,31.447L416.934,31.447z" fill="#fad24d"/><rect x="439px" y="105px" width="3px" height="123px" fill="#076673"/><path d="M143.389,155.274c-1.348,0-2.442-1.094-2.442-2.442s1.094-2.442,2.442-2.442h40.31l9.046-21.923  c0.511-1.244,1.933-1.836,3.177-1.327c0.638,0.262,1.104,0.765,1.34,1.358l0.008-0.003l13.417,33.874l11.418-19.337  c0.685-1.157,2.18-1.54,3.339-0.857c0.367,0.218,0.653,0.514,0.857,0.857l6.62,10.151l9.597-10.209  c0.92-0.978,2.465-1.026,3.446-0.105c0.187,0.176,0.335,0.372,0.456,0.582l3.89,6.943h52.277c1.348,0,2.442,1.094,2.442,2.442  c0,1.348-1.094,2.442-2.442,2.442h-53.701v-0.005c-0.855,0-1.682-0.448-2.127-1.246l-2.966-5.294l-9.443,10.041l-0.003-0.003  c-0.131,0.137-0.28,0.267-0.446,0.372c-1.125,0.732-2.636,0.409-3.368-0.716l-6.225-9.547l-11.888,20.132  c-0.262,0.509-0.701,0.926-1.272,1.152c-1.254,0.493-2.673-0.124-3.169-1.374l-13.031-32.901l-7.3,17.689  c-0.317,0.978-1.236,1.69-2.321,1.69h-41.937L143.389,155.274z" fill="#15bdb2"/></g><g transform="matrix(0.15508097410202026 0 0 0.15508097410202026 267.2992706298828 8.299297759807246)" id="L1_1"><circle cx="256" cy="255" r="255" fill="#fad24d"/><path d="M127.973,353.245c17.504,0,35.009,0,52.512,0l0.288,3.588l-25.664,38.905l-27.565-39.29l0.43-3.203  L127.973,353.245L127.973,353.245z" fill="#b3b3b3"/><path d="M128.311,343.487l-0.454,21.944l-37.233,20.36v65.603c3.672,3.111,7.428,6.125,11.271,9.025H153.3  h62.669v-74.63l-34.602-21.506l-1.899-21.941L128.311,343.487z" fill="#f0ba7d"/><path d="M111.107,279.491c0,0-2.135-4.693-7.867-2.366c-5.731,2.324,0.257,25.503,2.447,28.735  c2.19,3.234,5.716,1.178,6.998,1.052c1.825,13.818,1.988,23.342,7.52,29.168c5.238,5.519,17.236,16.761,23.552,20.682  c4.278,0.902,7.473,1.432,10.476,1.592c3.003-0.16,6.196-0.69,10.476-1.592c6.319-3.921,18.314-15.163,23.555-20.682  c5.532-5.826,5.692-15.35,7.517-29.168c1.285,0.126,4.808,2.18,6.998-1.052c2.191-3.232,8.184-26.411,2.45-28.735  c-5.731-2.324-7.869,2.366-7.869,2.366s5.668-18.201-4.406-36.118c-6.901-12.281-22.642-18.649-38.721-19.117  c-16.077,0.467-31.82,6.836-38.721,19.117C105.441,261.29,111.107,279.491,111.107,279.491z" fill="#fed298"/><path d="M109.599,371.889l8.916-3.509l7.184-6.457l25.369,19.242h6.319l25.38-19.266l16.1,9.993  l27.974,47.553l-16.318,88.527c-50.572-9.067-95.989-32.986-131.583-67.084l-5.904-17.647L109.599,371.889z" fill="#15bdb2"/><g><path d="M190.728,365.877l-10.243-12.63l-23.096,27.916l19.824,22.028l13.514-37.312v-0.002H190.728z" fill="#21d0c3"/><path d="M117.719,365.655l10.256-12.407l23.096,27.916l-20.612,21.799L117.719,365.655z" fill="#21d0c3"/></g><path d="M117.719,365.655l-67.886,22.078c-2.762,0.897-4.496,3.245-5.057,6.091l-1.049,5.315  c25.071,37.105,59.615,67.275,100.162,87.057l-26.167-120.54h-0.003V365.655z" fill="#ffffff"/><g><path d="M117.719,365.655l-7.777,2.389l-20.601,35.148l26.004,0.815l-15.966,9.089l29.627,65.229   c4.86,2.783,9.823,5.403,14.878,7.872l-26.167-120.54L117.719,365.655z" fill="#eef3f7"/><path d="M190.728,365.877l67.91,21.855c2.765,0.889,4.496,3.245,5.054,6.091l22.767,116.364   c-9.988,1.186-20.15,1.812-30.458,1.812c-7.712,0-15.342-0.362-22.88-1.028l-4.884-16.567c-0.108-0.372-0.469-0.603-0.855-0.556   s-0.677,0.354-0.698,0.743l-0.588,15.662c-22.081-2.571-43.308-7.937-63.306-15.759l27.94-128.614L190.728,365.877z" fill="#eef3f7"/></g><path d="M190.728,365.877l4.318,1.314l24.061,36.224l-26.004,0.818l15.966,9.089l-38.275,84.135  c-2.689-0.949-5.361-1.93-8.005-2.964l27.94-128.614V365.877z" fill="#ffffff"/><path d="M192.415,284.911l3.995-0.139l1.285-4.556l3.762-3.756c2.486-18.715,3.221-47.838-15.355-46.999  c0,0-1.676-21.238-35.18-17.074c-33.506,4.163-48.647,25.794-46.841,43.841c1.804,18.047,1.076,20.231,1.076,20.231l3.762,3.759  l0.569,5.186l3.287-0.21c0,0,1.028-6.94,2.062-9.993c1.031-3.051,0.711-9.23,0.711-9.23s39.575,2.521,50.27-11.082  c6.605-8.402,21.776-22.959,22.54-2.797c0.226,5.978-1.996,14.938,2.259,21.459c4.255,6.523,1.804,11.366,1.804,11.366  L192.415,284.911z" fill="#666666"/><path d="M162.785,494.491l2.146-9.873l-7.269-97.059l3.96-1.69l-4.234-4.706h-6.319l-4.343,4.593l4.076,1.802  l-7.09,97.846l0.173,0.792c6.167,3.008,12.468,5.781,18.899,8.297v-0.004H162.785z" fill="#0f7986"/><path d="M220.761,470.732c-7.353-1.27-12.284-8.257-11.014-15.612c1.27-7.35,8.26-12.284,15.609-11.016  c7.355,1.27,12.286,8.26,11.016,15.614C235.104,467.07,228.114,472.001,220.761,470.732z" fill="#fefefe"/><path d="M220.895,469.958c-6.924-1.196-11.567-7.777-10.374-14.702c1.196-6.924,7.78-11.57,14.702-10.374  c6.924,1.196,11.567,7.78,10.374,14.704C234.401,466.511,227.82,471.154,220.895,469.958z" fill="#0f7986"/><path d="M221.86,464.358c-3.83-0.664-6.4-4.305-5.739-8.134c0.664-3.832,4.307-6.4,8.134-5.739  c3.832,0.664,6.402,4.302,5.742,8.134C229.336,462.448,225.692,465.019,221.86,464.358z" fill="#ebecec"/><path d="M120.39,473.148l4.493-0.892c2.463-0.488,4.504-1.941,5.802-3.887  c1.298-1.943,1.865-4.383,1.374-6.846l-6.818-34.346c-2.573-12.961-12.711-19.571-24.296-21.037  c-4.44-0.561-9.094-0.356-13.603,0.538c-4.511,0.892-8.887,2.479-12.774,4.693c-5.217,2.972-9.558,7.061-12.186,12.105  c0.58,0.669,1.173,1.322,1.758,1.983c2.342-5.023,6.526-9.075,11.625-11.977c3.659-2.085,7.788-3.583,12.05-4.427  c4.26-0.844,8.648-1.036,12.829-0.506c10.605,1.34,19.877,7.347,22.208,19.101l6.818,34.348c0.359,1.805-0.058,3.594-1.01,5.02  c-0.955,1.424-2.45,2.492-4.257,2.848l-5.797,1.149l0.231,1.165c0.514,0.325,1.033,0.643,1.548,0.968H120.39z" fill="#21d0c3"/><path d="M127.079,432.265l-1.041-5.246c-2.652-13.362-13.083-20.173-24.995-21.682  c-4.525-0.572-9.265-0.367-13.857,0.546c-4.596,0.91-9.052,2.529-13.013,4.785c-5.254,2.993-9.645,7.09-12.36,12.134  c0.963,1.12,1.941,2.225,2.922,3.326c2.24-5.02,6.372-9.065,11.429-11.946c3.586-2.041,7.63-3.507,11.809-4.336  c4.176-0.828,8.477-1.015,12.574-0.496c10.274,1.295,19.258,7.103,21.511,18.458l1.041,5.246L127.079,432.265z" fill="#4d4d4d"/><path d="M221.486,464.292c-3.622-0.627-6.054-4.071-5.427-7.693c0.625-3.622,4.068-6.054,7.691-5.427  c3.622,0.627,6.054,4.071,5.427,7.693c-0.627,3.622-4.071,6.054-7.693,5.427H221.486z" fill="#fefefe"/><g><path d="M117.751,367.441c-0.105,0-36.696,0.304-30.513,32.318l-3.402,0.651   c-6.966-36.09,33.761-36.423,33.876-36.423L117.751,367.441z" fill="#4d4d4d"/><path d="M190.767,364.149c5.97,0.16,17.511,1.786,26.392,12.59c8.693,10.573,14.786,29.994,10.227,65.597   l-3.431-0.433c4.412-34.458-1.287-53.011-9.469-62.966c-7.992-9.724-18.414-11.19-23.803-11.334l0.081-3.454L190.767,364.149   L190.767,364.149z" fill="#4d4d4d"/></g><path d="M358.959,344.28l-5.128,25.771l-17.183,5.909l7.633,120.409c25.228-9.27,48.591-22.398,69.376-38.668  l1.587-84.77l-10.975-3.452l-5.592-26.287l-39.723,1.091L358.959,344.28z" fill="#f0ba7d"/><path d="M332.751,420.711c28.604,13.871,58.028,16.779,89.004,0.784l-0.262,29.803  c-25.899,21.968-56.222,38.886-89.445,49.216l0.703-79.8L332.751,420.711L332.751,420.711z" fill="#21d0c3"/><path d="M409.793,371.438l49.829,13.592c4.949,1.527,9.692,3.591,13.687,6.324  c-22.715,36.392-54.315,66.655-91.76,87.776l28.247-107.693h-0.003V371.438z" fill="#eef3f7"/><g><path d="M409.319,371.087l6.568,2.647l22.395,33.627l-26.251-0.422l16.27,8.708l-37.339,57.908   c-3.121,1.941-6.288,3.817-9.495,5.624l27.853-108.091H409.319z" fill="#ffffff"/><path d="M351.5,370.924l-50.063,12.711c-12.992,3.762-24.664,11.195-25.277,24.916l-4.59,102.96   c12.997-0.779,25.732-2.526,38.136-5.175l2.366-31.823l3.837,30.416c20.834-4.997,40.677-12.54,59.183-22.282L351.5,370.924z" fill="#ffffff"/></g><path d="M351.98,370.58l-7.827,2.998l-21.771,32.759l26.259,0.039l-16.425,8.419l39.641,69.539  c1.102-0.559,2.19-1.136,3.282-1.711L351.98,370.58z" fill="#eef3f7"/><path d="M325.073,282.482c-0.836,8.443,0.855,27.196,11.1,26.482c0,0,14.744,42.975,43.133,47.841  c24.509-4.48,39.416-43.4,40.549-47.104c3.375,1.154,12.821-14.565,5.582-27.423c-2.077-3.688-7.96-0.701-7.96-0.701l-0.451-10.736  c-38.729,3.762-62.879-33.698-62.879-33.698c-14.765,16.058-18.316,25.226-19.895,45.199c0,0-2.773-1.724-5.85-1.788  C327.476,280.535,326.284,281.341,325.073,282.482z" fill="#fed298"/><path d="M353.831,370.048l5.018-25.194c-14.532-14.309-22.112-35.891-22.112-35.891  c-9.902,1.104-13.879-26.186-7.216-27.14c3.048-0.435,5.086,0.519,5.086,0.519c1.5-21.089,5.563-27.505,19.539-45.199  c0,0,24.415,41.077,63.114,37.315l0.554,8.856c1.83-1.799,5.173-3.488,7.96,1.094c4.532,7.457-1.398,24.404-6.885,25.435  c-0.779,2.613-6.888,21.891-19.832,35.103l5.217,24.528c14.521,4.703,28.522,8.336,42.58,12.073  c-7.14-43.521-11.232-90.619-19.756-130.823c-8.184-38.576-52.906-49.367-78.622-32.234c0,0-22.175,8.936-26.225,38.571  c-4.047,29.635-2.497,32.491-2.497,32.491l-7.145,91.249c13.249-3.365,28.591-6.405,41.225-10.752L353.831,370.048z" fill="#666666"/><path d="M345.562,479.86l5.81-1.152c2.465-0.49,4.509-1.943,5.81-3.892c1.303-1.946,1.867-4.391,1.374-6.86  l-6.825-34.401c-2.578-12.984-12.732-19.605-24.339-21.071c-4.448-0.564-9.11-0.359-13.626,0.538  c-4.519,0.894-8.903,2.484-12.792,4.701c-10.14,5.774-16.974,15.759-14.395,28.762l6.831,34.406  c0.488,2.468,1.946,4.509,3.892,5.813h0.003c1.949,1.303,4.388,1.865,6.854,1.377l5.802-1.154l-0.475-2.389l-5.805,1.154  c-1.807,0.356-3.601-0.055-5.028-1.01l0,0c-1.429-0.957-2.494-2.455-2.856-4.263l-6.828-34.404  c-2.339-11.798,3.918-20.892,13.199-26.173c3.665-2.091,7.801-3.588,12.071-4.435c4.265-0.844,8.664-1.039,12.85-0.509  c10.623,1.343,19.911,7.358,22.248,19.135l6.831,34.406c0.359,1.807-0.058,3.599-1.012,5.028c-0.957,1.429-2.455,2.494-4.263,2.853  l-5.808,1.152l0.475,2.392L345.562,479.86z" fill="#21d0c3"/><path d="M353.572,438.656l-1.041-5.257c-2.657-13.385-13.107-20.205-25.039-21.715  c-4.535-0.572-9.283-0.37-13.884,0.546c-4.601,0.91-9.067,2.531-13.033,4.79c-10.429,5.938-17.454,16.22-14.791,29.627l1.044,5.257  l3.984-0.794l-1.044-5.254c-2.261-11.397,3.809-20.194,12.798-25.312c3.594-2.043,7.646-3.512,11.83-4.344  c4.186-0.828,8.493-1.018,12.598-0.501c10.293,1.303,19.289,7.116,21.548,18.49l1.044,5.257l3.984-0.792L353.572,438.656z" fill="#4d4d4d"/><g><path d="M344.228,373.72c-0.108,0-36.756,0.304-30.566,32.371l-3.407,0.651   c-6.979-36.147,33.819-36.481,33.934-36.486L344.228,373.72z" fill="#4d4d4d"/><path d="M417.369,370.423c5.98,0.16,17.543,1.788,26.437,12.611c5.634,6.854,10.177,17.419,11.447,33.682   c-1.06,1.314-2.133,2.615-3.219,3.908c-0.771-17.511-5.244-28.504-10.902-35.387c-8.008-9.742-18.445-11.208-23.843-11.355   L417.369,370.423z" fill="#4d4d4d"/></g><path d="M142.677,53.166h128.904c7.937,0,14.432,6.494,14.432,14.432v84.833  c0,7.937-6.494,14.432-14.432,14.432H167.477c-6.293,12.79-36.735,18.725-36.735,18.725s9.511-7.559,14.873-18.725h-2.938  c-7.937,0-14.432-6.494-14.432-14.432V67.598C128.245,59.66,134.74,53.166,142.677,53.166z" fill="#ff5b62"/><path d="M306.723,65.344c42.831,0,77.552,27.633,77.552,61.719c0,19.576-11.452,37.018-29.318,48.326  c4.192,14.314,17.146,24.609,17.146,24.609s-26.286-5.128-35.053-16.118c-9.317,3.156-19.568,4.902-30.33,4.902  c-42.831,0-77.554-27.633-77.554-61.719s34.723-61.719,77.554-61.719L306.723,65.344L306.723,65.344z" fill="#21d0c3"/><g><path d="M142.392,73.615h90.347v5.576h-90.347V73.615z M142.392,108.752h66.087v5.576h-66.087V108.752z    M142.392,91.183h90.347v5.576h-90.347V91.183z" fill="#fefefe"/><path d="M264.807,107.477h90.347v5.576h-90.347L264.807,107.477L264.807,107.477z M264.807,142.616h66.087   v5.576h-66.087V142.616z M264.807,125.046h90.347v5.576h-90.347L264.807,125.046L264.807,125.046z" fill="#fefefe"/></g></g><g transform="matrix(0.13841438952095106 -0.035152860128986343 0.035152860128986343 0.13841438952095106 -6.4332159103839786 22.565048475657033)" id="L1_2"><circle cx="256" cy="256" r="256" fill="#21d0c3"/><path d="M181.224,401.523c0,0-19.322,46.921-20.127,92.292C190.446,505.538,222.466,512,256,512  c28.596,0,56.092-4.706,81.771-13.357c-0.352-2.06-0.691-3.886-1.013-5.414c-6.036-28.678-9.057-45.28-9.057-45.28  s4.024-26.67,2.265-39.498c-1.762-12.829-1.51-44.527,4.025-59.119c5.534-14.59,13.581-55.342,16.602-86.536  c3.018-31.194,10.564-52.328,19.12-64.906c8.554-12.575-54.503-33.423-62.551-31.409c-8.051,2.011-24.519-5.967-24.519-5.967  l-8.982-6.961l-9.644-31.098c0,0,4.562-5.886,8.301-14.539c0,0,5.108-0.724,6.992-3.615c1.887-2.894,6.417-20.629,5.662-26.414  c-0.379-2.909-3.779-2.573-7.068-1.523c0.089-17.163-3.54-45.568-27.192-54.825C215.992,7.956,197.749,33.03,197.749,33.03  s-10.188,14.216-8.427,31.322c1.76,17.108,2.264,22.136,2.264,22.136s-7.409-4.343-8.038,3.205s9.01,22.928,9.765,24.186  c0.755,1.258,5.093-0.819,5.093-0.819s3.588,10.816,5.599,13.333c2.013,2.514,3.081,3.019,3.081,3.019s7.675,26.977,7.675,29.746  c0,2.767-28.679,21.38-34.718,22.891c-2.963,0.742-14.356,0.756-27.865,4.148c-13.51,3.393-5.998,16.732-5.998,16.732  s4.969,34.841,10.756,48.174c5.786,13.333,20.879,48.802,32.451,63.142c11.57,14.34,6.18,41.938,6.18,41.938L181.224,401.523  L181.224,401.523z" fill="#ff5b62"/><g><path d="M247.252,511.852l0.094,0.002c-9.978-8.94-8.332-35.891-6.004-41.613   c-6.06,11.845-5.335,27.708-0.419,37.759c0.552,1.128-0.512,2.495-1.661,3.457C241.915,511.631,244.577,511.762,247.252,511.852z" fill="#ed4c54"/><path d="M236.664,219.502c0,0-9.567-4.984-12.584-2.908c-3.015,2.078-0.997,5.124,3.029,6.579   c4.029,1.457,5.605,2.611,9.759,5.041c2.479,1.45,6.86,1.077,9.332-0.38c4.143-2.441,4.337-3.296,8.36-4.765   c4.022-1.471,6.026-4.519,3.006-6.587c-3.025-2.068-12.135,2.577-12.135,2.577C242.924,220.103,239.174,220.395,236.664,219.502z    M225.177,161.596c-2.271,1.712-0.274,4.05,2.982,4.809c3.255,0.757,4.589,1.508,8.035,3.006c2.056,0.893,4.565,1.505,6.334,0.154   c2.967-2.267,5.242-2.558,8.209-4.061c3.074-1.556,3.02-3.02,1.952-3.976c-1.096-0.979-3.314-1.394-8.426,2.037   C238.073,167.803,228.148,159.358,225.177,161.596L225.177,161.596z M235.515,175.194c0,0-8.689-4.412-11.392-2.512   c-2.707,1.903-0.852,4.636,2.799,5.915c3.655,1.277,5.09,2.308,8.866,4.466c2.252,1.283,6.207,0.909,8.426-0.428   c3.723-2.245,3.884-3.019,7.505-4.383c3.619-1.362,5.403-4.136,2.652-5.976c-2.75-1.842-10.936,2.44-10.936,2.44   C241.18,175.678,237.793,175.975,235.515,175.194L235.515,175.194z M236.157,188.783c0,0-9.562-4.981-12.58-2.902   c-3.014,2.078-0.997,5.119,3.031,6.573c4.025,1.459,5.605,2.616,9.759,5.046c2.474,1.449,6.861,1.077,9.331-0.383   c4.146-2.441,4.336-3.294,8.358-4.764c4.023-1.47,6.032-4.523,3.008-6.587c-3.023-2.069-12.134,2.576-12.134,2.576   C242.42,189.389,238.67,189.678,236.157,188.783L236.157,188.783z M236.914,204.876c0,0-9.569-4.982-12.58-2.904   c-3.018,2.076-1,5.117,3.028,6.575c4.027,1.456,5.604,2.613,9.759,5.043c2.476,1.447,6.86,1.076,9.331-0.382   c4.146-2.441,4.338-3.297,8.358-4.766c4.023-1.47,6.028-4.52,3.008-6.584c-3.026-2.068-12.135,2.576-12.135,2.576   C243.175,205.477,239.424,205.767,236.914,204.876z M256.414,372.751c0,0-9.297-5.442-12.417-3.513   c-3.118,1.928-1.262,5.065,2.684,6.717c11.68,4.876,12.695,6.867,14.036,6.698c1.246-0.156,2.774-2.175,13.384-5.468   c4.095-1.271,6.255-4.223,3.342-6.433c-2.912-2.212-12.248,1.986-12.248,1.986C262.638,373.657,258.875,373.766,256.414,372.751   L256.414,372.751z M256.54,358.734c0,0-9.297-5.44-12.414-3.514c-3.123,1.928-1.265,5.069,2.683,6.716   c3.944,1.652,5.461,2.882,9.483,5.51c2.398,1.567,6.798,1.408,9.341,0.073c4.269-2.238,4.501-3.084,8.595-4.352   c4.094-1.275,6.255-4.225,3.342-6.434c-2.911-2.209-12.25,1.986-12.25,1.986C262.761,359.64,259.004,359.748,256.54,358.734   L256.54,358.734z M256.942,343.223c0,0-10.304-3.328-12.91-0.785c-2.605,2.545-0.083,5.211,4.142,5.98   c4.224,0.771,5.981,1.648,10.501,3.355c2.697,1.017,6.951-0.071,9.129-1.918c3.654-3.092,3.691-3.964,7.397-6.076   c3.706-2.114,5.145-5.451,1.802-6.987c-3.344-1.537-11.503,4.548-11.503,4.548C263.216,342.777,259.572,343.688,256.942,343.223z    M253.016,327.008c0,0-9.568-4.981-12.583-2.907c-3.015,2.081-0.998,5.124,3.029,6.579c4.028,1.457,5.605,2.61,9.759,5.041   c2.476,1.451,6.857,1.077,9.331-0.38c4.146-2.44,4.335-3.296,8.36-4.767c4.022-1.467,6.027-4.518,3.005-6.584   c-3.025-2.068-12.133,2.579-12.133,2.579C259.276,327.609,255.524,327.902,253.016,327.008L253.016,327.008z M248.486,312.016   c0,0-9.565-4.981-12.579-2.907c-3.019,2.078-1.002,5.122,3.028,6.577c4.027,1.459,5.604,2.613,9.759,5.044   c2.474,1.449,6.86,1.077,9.329-0.382c4.147-2.442,4.337-3.297,8.36-4.766c4.022-1.471,6.029-4.519,3.005-6.586   c-3.021-2.069-12.13,2.576-12.13,2.576C254.748,312.616,250.995,312.909,248.486,312.016L248.486,312.016z M245.09,295.927   c0,0-9.565-4.981-12.582-2.906c-3.016,2.079-1,5.122,3.031,6.578c4.025,1.457,5.603,2.612,9.758,5.043   c2.475,1.447,6.858,1.076,9.33-0.383c4.146-2.441,4.336-3.295,8.358-4.765c4.024-1.469,6.029-4.52,3.008-6.587   c-3.022-2.068-12.132,2.579-12.132,2.579C251.351,296.53,247.602,296.816,245.09,295.927L245.09,295.927z M242.702,279.836   c0,0-9.566-4.981-12.583-2.907c-3.015,2.079-1,5.123,3.029,6.579c4.027,1.456,5.605,2.612,9.758,5.04   c2.476,1.45,6.862,1.08,9.334-0.379c4.146-2.441,4.335-3.296,8.358-4.765c4.023-1.471,6.027-4.523,3.008-6.587   c-3.025-2.069-12.135,2.578-12.135,2.578C248.962,280.439,245.212,280.729,242.702,279.836L242.702,279.836z M240.437,264.235   c0,0-9.567-4.979-12.584-2.904c-3.013,2.077-0.997,5.121,3.031,6.576c4.028,1.457,5.605,2.61,9.76,5.041   c2.475,1.45,6.861,1.077,9.331-0.379c4.146-2.442,4.335-3.297,8.358-4.765c4.023-1.47,6.03-4.522,3.007-6.587   c-3.023-2.069-12.132,2.578-12.132,2.578C246.697,264.837,242.947,265.128,240.437,264.235L240.437,264.235z M239.683,249.362   c0,0-9.567-4.979-12.582-2.903c-3.016,2.076-0.997,5.121,3.029,6.576c4.026,1.455,5.603,2.612,9.758,5.045   c2.479,1.444,6.86,1.073,9.331-0.383c4.146-2.442,4.338-3.299,8.359-4.766c4.024-1.47,6.029-4.52,3.007-6.586   c-3.022-2.069-12.134,2.577-12.134,2.577C245.945,249.965,242.193,250.255,239.683,249.362z M237.293,234.496   c0,0-9.569-4.981-12.58-2.907c-3.015,2.077-1,5.122,3.028,6.576c4.027,1.457,5.605,2.611,9.757,5.043   c2.479,1.449,6.863,1.076,9.332-0.38c4.148-2.441,4.337-3.297,8.359-4.767c4.022-1.469,6.027-4.52,3.007-6.583   c-3.021-2.069-12.132,2.577-12.132,2.577C243.554,235.094,239.805,235.388,237.293,234.496L237.293,234.496z" fill="#ed4c54"/><path d="M183.244,403.374l26.414,15.345l31.445,7.547c0,0,0-3.774-2.013-5.911   c-2.012-2.138-25.281-12.326-25.281-12.326l-7.169-5.031l18.489,6.793l31.574,3.397c0,0,2.262-2.515,0.627-5.16   c-1.634-2.639-24.274-6.79-24.274-6.79l-21.133-8.177l-2.39-3.02l21.256,7.173c0,0,19.875,2.638,21.762,1.883   c1.886-0.755,0.249-5.155,0.249-5.155l-23.272-8.553l-17.045-6.477v-2.454l9.75,3.462l22.077,3.016c0,0,3.647-1.257,1.004-4.78   c-2.641-3.522-23.71-8.928-23.71-8.928s-2.642-2.39-16.477-9.561c-2.951-1.53-6.23-2.657-9.561-3.487L183.244,403.374   L183.244,403.374z" fill="#ed4c54"/></g><g><path d="M151.434,186.386c-13.841,3.583-29.754,10.753-41.079,25.851c0,0-40.249,23.645-57.862,54.841   c-17.61,31.196-28.679,41.256-17.105,56.351c11.571,15.096,106.913,44.781,112.95,48.303c5.261,3.068,13.721,11.915,15.809,14.139   l19.095,17.505l12.324-47.192c-12.283-3.058-25.282-2.046-25.282-2.046s-3.27,0.504-15.595-9.309   c-12.329-9.81-73.961-44.526-73.961-44.526s12.329-5.788,24.402-13.081c12.075-7.294,51.804-36.115,51.804-36.115   s7.82-14.448,15.366-34.321C179.852,196.907,151.434,186.386,151.434,186.386L151.434,186.386z" fill="#ff5b62"/><path d="M353.958,239.717c3.801-18.895,9.507-32.639,15.755-41.824   c8.554-12.575,56.602-51.822,63.645-76.476c7.046-24.65,19.37-42.263,22.389-51.067c3.02-8.806,3.523-31.446-16.601-31.948   c-20.128-0.504-132.577,41.506-132.577,41.506l-15.848,4.027c0,0-8.858,1.16-12.768,4.927l-0.948,1.108l-14.979,16.974   l-19.878,10.8c0,0-11.066,0.77-10.563,4.545c0.503,3.775,12.494,1.902,12.494,1.902l17.003-5.741l-15.639,7.826   c0,0-17.506,2.68-18.008,4.061c-0.502,1.381-0.235,5.668,2.407,5.416c2.642-0.252,24.384-2.898,24.384-2.898l13.459-3.775   l-16.101,8.175c0,0-26.037,2.894-26.666,5.662c-0.629,2.768,0,5.408,1.763,6.037c1.76,0.629,27.922-1.385,27.922-1.385   l20.128-8.048l-16.99,10.147l-23.64,4.318c0,0-1.054,5.754,2.971,6.506s25.235-1.933,25.235-1.933l24.947-10.683   c0,0,16.641-18.522,18.023-25.692c1.382-7.17,2.716-8.646,6.112-11.664c3.396-3.018,4.088-1.447,4.088-1.447l66.035-15.219   c0,0-7.674,8.302-11.323,15.597c-3.647,7.296-39.496,18.612-46.54,34.713c-12.303,28.117-20.43,23.905-41.007,16.353   c0,0-16.888,14.376-17.03,20.052c-0.735,28.908,13.933,106.052,15.318,106.884C282.589,288.447,327.064,304.937,353.958,239.717   L353.958,239.717z" fill="#ff5b62"/></g><path d="M284.47,85.389c-2.363,0.77-4.876,1.89-6.518,3.472l-0.948,1.108l-14.979,16.974l-18.261,9.921  c-1.571,0.853-10.786,1.111-12.882,3.08c-5.954,5.592,11.97,4.66,13.817,4.036l16.38-5.529l-15.639,7.826  c0,0-18.091,3.329-18.593,4.711c-0.502,1.382-0.644,4.868,1.998,4.617s20.051-0.67,20.051-0.67l17.303-5.437l-2.185-7.04  c0,0,4.562-5.886,8.301-14.539c0,0,5.108-0.724,6.992-3.615C280.642,102.257,283.296,92.803,284.47,85.389L284.47,85.389z   M266.29,129.789l-17.174,8.635c0,0-23.569,1.725-24.198,4.492c-0.629,2.768,0.781,4.11,2.543,4.739  c1.761,0.629,25.128-0.41,25.128-0.41l17.318-5.796L266.29,129.789L266.29,129.789z M270.156,142.253l-12.416,7.415l-22.127,4.042  c-0.964,0.176-1.648,1.004-1.637,1.984c0.018,1.759,0.508,4.316,3.095,4.799c4.024,0.751,24.272-2.999,24.272-2.999l12.436-3.847  l-0.119-0.092L270.156,142.253z" fill="#ed4c54"/><path d="M213.142,145.854c13.015,0,23.564,10.549,23.564,23.564c0,13.015-10.55,23.564-23.564,23.564  c-13.015,0-23.564-10.55-23.564-23.564C189.578,156.405,200.127,145.854,213.142,145.854z M213.142,124.995  c12.258,0,23.359,4.974,31.399,13.012l0.014,0.014c8.036,8.039,13.012,19.144,13.012,31.399c0,12.258-4.974,23.359-13.012,31.399  l-0.014,0.014c-8.039,8.036-19.141,13.012-31.399,13.012c-12.254,0-23.359-4.974-31.399-13.012l-0.014-0.014  c-8.036-8.039-13.012-19.141-13.012-31.399c0-12.254,4.974-23.359,13.012-31.399l0.014-0.014  C189.782,129.969,200.888,124.995,213.142,124.995z M239.72,142.841c-6.799-6.793-16.195-10.997-26.577-10.997  s-19.778,4.204-26.577,10.997c-6.793,6.799-10.997,16.196-10.997,26.577c0,10.383,4.204,19.778,10.997,26.577  c6.799,6.793,16.196,10.997,26.577,10.997c10.383,0,19.778-4.204,26.577-10.997c6.793-6.799,10.997-16.195,10.997-26.577  C250.716,159.037,246.513,149.641,239.72,142.841z" fill="#fefefe"/><path d="M153.344,231.972c-0.667,5.422,1.02,18.97-1.317,22.678c5.98,8.776,12.947,15.136,18.833,27.369  C164.532,268.15,158.274,253.876,153.344,231.972z" fill="#ed4c54"/><path d="M277.003,389.572c8.959,0,16.221,7.263,16.221,16.221c0,8.958-7.263,16.221-16.221,16.221  s-16.221-7.263-16.221-16.221C260.782,396.835,268.044,389.572,277.003,389.572z M277.003,375.213c8.438,0,16.08,3.424,21.614,8.957  c5.755,5.755,8.965,13.483,8.965,21.623c0,8.438-3.424,16.08-8.957,21.614c-5.756,5.756-13.482,8.965-21.623,8.965  c-8.436,0-16.08-3.424-21.614-8.956c-5.756-5.756-8.965-13.482-8.965-21.623c0-8.436,3.424-16.08,8.956-21.614  C261.135,378.424,268.863,375.213,277.003,375.213z M295.298,387.498c-4.68-4.676-11.147-7.57-18.294-7.57  c-7.146,0-13.614,2.894-18.294,7.57c-4.676,4.68-7.57,11.149-7.57,18.294c0,7.147,2.894,13.614,7.57,18.294  c4.68,4.676,11.148,7.57,18.294,7.57c7.147,0,13.614-2.894,18.294-7.57c4.676-4.68,7.57-11.147,7.57-18.294  C302.867,398.647,299.974,392.178,295.298,387.498z" fill="#fefefe"/><path d="M381.512,93.854c3.514,0.182,18.98-3.188,28.49-9.791l9.356-6.497  c-12.299,12.942-23.016,18.273-41.557,20.625C379.899,95.598,381.512,93.854,381.512,93.854z" fill="#ed4c54"/></g><g transform="matrix(0.1441944983481317 0.04348723000808185 -0.04348723000808185 0.1441944983481317 72.21075820144088 0.9887836673110542)" id="L1_5"><circle cx="256" cy="256" r="256" fill="#ecf0f1"/><circle cx="256" cy="256" r="256" fill="#0f7986"/><path d="M74.699,16.505h246.348c7.812,0,14.145,6.333,14.145,14.145v325.722  c0,7.812-6.333,14.145-14.145,14.145H74.699c-7.812,0-14.145-6.333-14.145-14.145V30.65C60.554,22.837,66.886,16.505,74.699,16.505z  " fill="#eef3f7"/><path d="M77.749,41.561h240.248c0.907,0,1.643,0.736,1.643,1.643v292.531c0,0.907-0.736,1.643-1.643,1.643  H77.749c-0.907,0-1.643-0.736-1.643-1.643V43.204C76.105,42.296,76.842,41.561,77.749,41.561z" fill="#21d0c3"/><g><circle cx="197" cy="353" r="9" fill="#ecf0f1"/><circle cx="325" cy="358" r="6" fill="#ecf0f1"/></g><path d="M319.64,69.697H76.104V43.203c0-0.905,0.74-1.643,1.643-1.643h240.249  c0.907,0,1.643,0.738,1.643,1.643v26.494H319.64z" fill="#ff5b62"/><g><path d="M94.155,49.565c3.502,0,6.335,2.833,6.335,6.336c0,3.5-2.832,6.335-6.335,6.335   c-3.498,0-6.336-2.834-6.336-6.335C87.819,52.399,90.657,49.565,94.155,49.565z" fill="#ffffff"/><path d="M111.987,49.565c3.502,0,6.335,2.833,6.335,6.336c0,3.5-2.832,6.335-6.335,6.335   c-3.498,0-6.336-2.834-6.336-6.335C105.651,52.399,108.488,49.565,111.987,49.565z" fill="#ffffff"/><path d="M129.819,49.565c3.502,0,6.335,2.833,6.335,6.336c0,3.5-2.832,6.335-6.335,6.335   c-3.498,0-6.336-2.834-6.336-6.335C123.484,52.399,126.321,49.565,129.819,49.565z" fill="#ffffff"/><path d="M165.366,50.979h144.827c1.067,0,1.938,1.147,1.938,2.553v4.738c0,1.405-0.871,2.553-1.938,2.553   H165.366c-1.067,0-1.938-1.148-1.938-2.553v-4.738C163.427,52.126,164.299,50.979,165.366,50.979z" fill="#ffffff"/></g><path d="M158.134,179.398c12.206,0,24.41,0,36.615,0l0.201,2.502l-17.894,27.127l-19.222-27.395  L158.134,179.398L158.134,179.398z" fill="#b3b3b3"/><path d="M158.371,172.594l-0.317,15.3l-25.961,14.197v52.033h43.702h43.696v-52.033l-24.126-14.998  l-1.325-15.298L158.371,172.594z" fill="#f0ba7d"/><path d="M146.376,127.973c0,0-1.49-3.273-5.486-1.649c-3.997,1.62,0.181,17.781,1.708,20.036  c1.526,2.254,3.983,0.82,4.878,0.734c1.272,9.635,1.386,16.275,5.241,20.338c3.654,3.845,12.018,11.685,16.424,14.419  c2.984,0.63,5.211,0.998,7.304,1.111c2.094-0.112,4.322-0.481,7.305-1.111c4.405-2.734,12.769-10.573,16.421-14.419  c3.856-4.063,3.97-10.703,5.243-20.338c0.894,0.087,3.353,1.521,4.878-0.734c1.528-2.254,5.705-18.416,1.707-20.036  c-3.996-1.623-5.484,1.649-5.484,1.649s3.95-12.691-3.072-25.184c-4.812-8.562-15.788-13.003-26.998-13.329  c-11.21,0.326-22.186,4.767-26.997,13.329C142.425,115.282,146.376,127.973,146.376,127.973L146.376,127.973z" fill="#fed298"/><path d="M145.323,192.398l6.217-2.449l5.011-4.503l17.688,13.418h4.407l17.694-13.433l11.224,6.968  l19.506,33.155l-10.119,54.909h-79.628L119.833,228.2L145.323,192.398L145.323,192.398z" fill="#ebecec"/><g><path d="M201.89,188.205l-7.141-8.807l-16.103,19.465l13.822,15.358L201.89,188.205L201.89,188.205z" fill="#ffffff"/><path d="M150.986,188.049l7.148-8.651l16.106,19.465l-14.372,15.201L150.986,188.049z" fill="#ffffff"/><path d="M150.986,188.049l-47.335,15.393c-1.923,0.624-3.134,2.262-3.524,4.247l-13.921,70.537   c0.798,0.755,1.607,1.5,2.423,2.236h35.405l0.809-2.645c0.081-0.26,0.326-0.422,0.595-0.389c0.269,0.032,0.474,0.247,0.49,0.517   l0.094,2.517h45.024L150.986,188.049L150.986,188.049z" fill="#ffffff"/></g><g><path d="M150.986,188.049l-5.422,1.666l-14.363,24.506l18.132,0.569l-11.132,6.339l26.949,59.334h5.897   L150.986,188.049z" fill="#eef3f7"/><path d="M201.89,188.205l47.348,15.238c1.928,0.62,3.133,2.262,3.524,4.247l13.921,70.536   c-0.8,0.755-1.609,1.5-2.426,2.236h-35.406l-0.811-2.645c-0.079-0.258-0.327-0.422-0.597-0.388   c-0.267,0.031-0.47,0.247-0.487,0.516l-0.094,2.517h-45.017L201.89,188.205L201.89,188.205z" fill="#eef3f7"/></g><path d="M201.89,188.205l3.009,0.915l16.775,25.259l-18.131,0.568l11.132,6.339l-26.921,59.178h-5.907  L201.89,188.205L201.89,188.205z" fill="#ffffff"/><g><path d="M203.065,131.751l2.787-0.097l0.897-3.177l2.623-2.619c1.732-13.047,2.246-33.355-10.708-32.769   c0,0-1.167-14.809-24.528-11.903c-23.363,2.902-33.92,17.983-32.661,30.565c1.258,12.583,0.751,14.107,0.751,14.107l2.623,2.619   l0.396,3.617l2.292-0.145c0,0,0.718-4.842,1.437-6.97c0.719-2.128,0.495-6.436,0.495-6.436s27.593,1.759,35.05-7.727   c4.604-5.858,15.181-16.008,15.716-1.951c0.158,4.167-1.392,10.416,1.573,14.963C204.774,128.375,203.065,131.751,203.065,131.751   L203.065,131.751z" fill="#666666"/><path d="M181.846,280.463l2.057-9.467l-5.067-67.672l2.761-1.18l-2.95-3.28h-4.407l-3.027,3.204l2.84,1.256   l-4.941,68.222l1.935,8.919L181.846,280.463L181.846,280.463z" fill="#666666"/></g><path d="M222.828,261.315c-5.125-0.884-8.562-5.76-7.678-10.886c0.885-5.124,5.758-8.565,10.885-7.68  c5.126,0.884,8.565,5.76,7.68,10.886C232.831,258.762,227.955,262.2,222.828,261.315z" fill="#fefefe"/><path d="M222.923,260.772c-4.827-0.833-8.065-5.421-7.232-10.248c0.832-4.829,5.422-8.068,10.251-7.235  c4.829,0.834,8.066,5.425,7.233,10.253C232.339,258.37,227.752,261.607,222.923,260.772L222.923,260.772z" fill="#0f7986"/><path d="M223.596,256.87c-2.669-0.461-4.463-3.001-3.999-5.671c0.461-2.674,3.001-4.462,5.671-4.002  c2.672,0.461,4.462,3,4.002,5.671C228.809,255.537,226.27,257.331,223.596,256.87L223.596,256.87z" fill="#ebecec"/><path d="M151.938,263.177l4.041-0.801c1.718-0.34,3.14-1.352,4.047-2.709  c0.905-1.355,1.297-3.057,0.957-4.773l-4.753-23.947c-1.792-9.036-8.863-13.646-16.942-14.666c-3.094-0.392-6.34-0.25-9.483,0.372  c-3.146,0.623-6.197,1.731-8.908,3.273c-7.057,4.019-11.814,10.972-10.014,20.023l4.752,23.947c0.34,1.718,1.355,3.139,2.709,4.047  l0.004-0.002c1.356,0.907,3.055,1.3,4.772,0.959l4.04-0.802l-0.33-1.665l-4.042,0.801c-1.259,0.249-2.506-0.038-3.5-0.702v-0.001  c-0.994-0.667-1.738-1.71-1.986-2.966l-4.754-23.947c-1.629-8.214,2.728-14.543,9.186-18.219c2.553-1.456,5.43-2.499,8.403-3.088  c2.97-0.588,6.032-0.722,8.947-0.353c7.392,0.936,13.858,5.123,15.484,13.32l4.755,23.947c0.249,1.259-0.04,2.505-0.705,3.5  c-0.665,0.995-1.708,1.738-2.967,1.986l-4.042,0.801L151.938,263.177L151.938,263.177z" fill="#21d0c3"/><path d="M157.513,234.495l-0.729-3.658c-1.847-9.318-9.121-14.066-17.426-15.116  c-3.156-0.398-6.46-0.255-9.663,0.38c-3.204,0.632-6.313,1.763-9.074,3.334c-7.26,4.133-12.147,11.289-10.295,20.622l0.727,3.659  l2.774-0.552l-0.727-3.658c-1.574-7.931,2.652-14.056,8.911-17.621c2.5-1.424,5.32-2.446,8.233-3.022  c2.914-0.578,5.911-0.709,8.769-0.349c7.164,0.906,13.427,4.954,15,12.872l0.727,3.658L157.513,234.495L157.513,234.495z" fill="#4d4d4d"/><g><path d="M151.01,189.295c-0.074,0-25.586,0.213-21.277,22.533l-2.372,0.454   c-4.857-25.163,23.541-25.396,23.621-25.396L151.01,189.295z" fill="#4d4d4d"/><path d="M201.917,187c4.164,0.112,12.211,1.246,18.403,8.781c6.061,7.371,10.308,20.911,7.131,45.734   l-2.391-0.3c3.077-24.026-0.897-36.962-6.602-43.901c-5.573-6.779-12.838-7.801-16.596-7.902L201.917,187z" fill="#4d4d4d"/></g><path d="M236.413,221.175c-3.949,5.391-5.338,11.877-4.39,18c0.948,6.121,4.23,11.883,9.622,15.832  c5.392,3.947,11.877,5.338,18,4.389c6.122-0.946,11.884-4.23,15.833-9.622c3.947-5.392,5.337-11.877,4.389-18  c-0.946-6.122-4.23-11.884-9.622-15.832c-5.392-3.949-11.879-5.337-18-4.389C246.123,212.5,240.36,215.782,236.413,221.175z   M239.747,237.979c-0.642-4.143,0.299-8.534,2.973-12.186c2.674-3.652,6.575-5.875,10.72-6.516c4.143-0.64,8.534,0.3,12.186,2.974  c3.652,2.674,5.875,6.575,6.515,10.718c0.641,4.145-0.299,8.535-2.973,12.186c-2.674,3.652-6.575,5.875-10.718,6.516  c-4.143,0.64-8.534-0.3-12.187-2.974C242.612,246.024,240.389,242.124,239.747,237.979z" fill="#ffffff"/><path d="M231.95,340.219h0.002c3.411-5.774,10.249-6.094,16.648-4.054l39.721,12.683l-0.987-8.399  l-5.737-19.442l-18.101-39.926l-18.116-40.313c-2.836-6.316-0.216-13.923,6.034-16.566c6.248-2.644,13.574,0.047,16.425,6.352  l31.178,69.073l3.065-1.168l-7.96-15.808c-3.111-6.18-0.138-13.756,6.031-16.565c6.177-2.804,13.315,0.175,16.428,6.352  l8.648,17.182l3.469-1.322l-5.773-10.992c-3.214-6.122-0.214-13.92,6.031-16.562c6.25-2.646,13.209,0.229,16.427,6.354l6.49,12.352  l4.158-1.586l-3.046-6.427c-2.961-6.249-0.215-13.917,6.033-16.561c6.251-2.644,13.464,0.102,16.426,6.352l6.309,13.316l1.288,2.173  l28.142,74.341c3.821,10.085,3.451,20.151,1.209,26.837c-0.644,1.915-1.434,3.552-2.332,4.836l32.523,74.071L363.01,492.75  l-28.459-81.565c-21.404-0.987-77.916-41.42-98.367-54.03C230.442,353.609,228.538,345.987,231.95,340.219L231.95,340.219z" fill="#fed198"/><path d="M369.345,489.883l-6.334,2.863l-28.459-81.565c-21.405-0.987-77.915-41.42-98.367-54.03  c-1.029-0.634-1.935-1.401-2.71-2.267c30.008,15.892,80.436,51.991,104.139,52.325L369.345,489.883L369.345,489.883z" fill="#f0b97d"/><path d="M341.99,456.451l90.931-39.745l18.526,36.092l-94.518,42.698L341.99,456.451L341.99,456.451z" fill="#ff5b62"/><g><path d="M337.584,438.716l85.2-37.754l7.252,16.902l-85.199,37.755L337.584,438.716L337.584,438.716z" fill="#ffffff"/><path d="M424.856,433.216c4.699-2.042,10.15,0.089,12.182,4.757c2.032,4.667-0.131,10.108-4.825,12.149   c-4.699,2.039-10.152-0.091-12.187-4.757C418,440.696,420.162,435.258,424.856,433.216L424.856,433.216z" fill="#ffffff"/><path d="M262.921,230.879l4.585,9.843l-15.102,6.828l-4.591-9.843   C244.2,229.958,260.101,222.879,262.921,230.879z M242.565,339.296L242.565,339.296l12.058,4.915l-6.099,15.594l-12.059-4.915   C228.627,351.693,234.792,336.125,242.565,339.296z" fill="#ffffff"/></g></g><g transform="matrix(0.14915533363819122 0 0 0.14915533363819122 123.81623458862305 7.816234588623047)" id="L1_6"><path d="M256,0c141.385,0,256,114.615,256,256S397.385,512,256,512S0,397.385,0,256S114.615,0,256,0z" fill="#21d0c3"/><path d="M256,407.27c100.67,0,182.284,6.434,182.284,14.369c0,7.935-81.609,14.369-182.284,14.369  c-100.67,0-182.284-6.434-182.284-14.369C73.716,413.703,155.325,407.27,256,407.27z" fill="#15bdb2"/><path d="M65.984,67.222h380.037c12.485,0,22.702,10.217,22.702,22.702V324.03H43.287V89.922  c0-12.485,10.217-22.702,22.702-22.702L65.984,67.222L65.984,67.222z" fill="#666666"/><path d="M58.695,308.617h394.609V89.927c0-3.977-3.308-7.289-7.284-7.289H65.984  c-3.977,0-7.284,3.307-7.284,7.289v218.69H58.695z" fill="#dce3db"/><g><path d="M468.718,324.03v24.826c0,12.49-11.261,22.702-25.024,22.702H68.307   c-13.764,0-25.024-10.212-25.024-22.702V324.03H468.718z" fill="#ffffff"/><path d="M149.561,108.342H362.44h31.689c3.839,0,6.983,3.146,6.983,6.983v41.546v151.746H110.896v-0.005   V156.872v-41.546c0-3.839,3.141-6.983,6.983-6.983h31.689C149.569,108.342,149.561,108.342,149.561,108.342z" fill="#ffffff"/></g><path d="M117.871,108.342h276.253c3.839,0,6.983,3.141,6.983,6.983v13.963h-290.22v-13.963  C110.887,111.488,114.028,108.342,117.871,108.342z" fill="#828282"/><path d="M240.093,115.575h140.189c1.035,0,1.875,0.84,1.875,1.875v3.478c0,1.035-0.84,1.875-1.875,1.875  H240.093c-1.035,0-1.875-0.84-1.875-1.875v-3.478C238.218,116.417,239.058,115.575,240.093,115.575z" fill="#ffffff"/><g><path d="M126.596,156.627h258.804v65.716H126.596V156.627z" fill="#21d0c3"/><path d="M164.997,239.844c6.72,0,12.166,5.445,12.166,12.166c0,6.716-5.445,12.166-12.166,12.166   c-6.716,0-12.166-5.445-12.166-12.166C152.831,245.289,158.276,239.844,164.997,239.844z" fill="#21d0c3"/></g><path d="M256,239.844c6.716,0,12.166,5.445,12.166,12.166c0,6.716-5.445,12.166-12.166,12.166  c-6.716,0-12.166-5.445-12.166-12.166C243.834,245.289,249.28,239.844,256,239.844z" fill="#ff5b62"/><path d="M347.003,239.844c6.716,0,12.166,5.445,12.166,12.166c0,6.716-5.445,12.166-12.166,12.166  s-12.166-5.445-12.166-12.166C334.837,245.289,340.283,239.844,347.003,239.844z" fill="#fad24d"/><g><path d="M140.309,274.951h49.37v2.679h-49.37V274.951z M140.309,291.782h33.163v2.679h-33.163V291.782z    M140.309,283.367h49.37v2.675h-49.37V283.367z" fill="#dce3db"/><path d="M231.317,274.951h49.37v2.679h-49.37L231.317,274.951L231.317,274.951z M231.317,291.782h33.163   v2.679h-33.163L231.317,291.782L231.317,291.782z M231.317,283.367h49.37v2.675h-49.37L231.317,283.367L231.317,283.367z" fill="#dce3db"/><path d="M322.32,274.951h49.366v2.679H322.32V274.951z M322.32,291.782h33.158v2.679H322.32V291.782z    M322.32,283.367h49.366v2.675H322.32V283.367z" fill="#dce3db"/></g><path d="M125.312,227.788h260.092v1.072H125.312C125.312,228.86,125.312,227.788,125.312,227.788z" fill="#ecf0f1"/><path d="M256,338.986c4.319,0,7.815,3.496,7.815,7.815c0,4.319-3.496,7.815-7.815,7.815  c-4.319,0-7.815-3.496-7.815-7.815C248.185,342.482,251.681,338.986,256,338.986z" fill="#b6b6b8"/><path d="M305.065,407.27l36.096,11.565H170.839l29.121-11.565v-35.712h105.105V407.27z" fill="#c2c2c4"/><path d="M305.065,407.27L199.96,371.557h105.105V407.27z" fill="#b0b0b0"/><path d="M199.96,407.27h105.105l36.096,11.565v4.983H256h-85.166v-4.983l29.121-11.565H199.96z" fill="#ecf0f1"/><g><path d="M364.2,152.124h17.713v-4.162H364.2V152.124z" fill="#dce3db"/><path d="M335.378,152.124h17.713v-4.162h-17.713V152.124z" fill="#dce3db"/><path d="M306.561,152.124h17.713v-4.162h-17.713V152.124z" fill="#dce3db"/><path d="M277.746,152.124h17.713v-4.162h-17.713V152.124z" fill="#dce3db"/></g><path d="M354.297,163.19l3.058,4.213l-1.963,1.422l-1.644-2.259c-1.612,1.113-10.623,8.083-0.388,18.318  c8.965,8.965,17.113,1.76,20.05-1.538l-2.171-1.746l1.52-1.889l4.055,3.261l-0.466,0.582l-0.009,0.009l-0.009,0.009l-0.009,0.009  c-0.153,0.199-0.392,0.503-0.716,0.887l-0.014,0.019l-0.3,0.369l-0.014-0.009c-3.118,3.533-11.764,11.376-21.658,3.496  c-3.081,1.912-7.612,1.33-12.221,0.735c-5.57-0.721-11.279-1.455-13.33,2.651c-0.956,1.917,0.083,3.067,1.87,3.963l0.005-0.005  c1.252,0.624,2.803,1.146,4.378,1.677c5.496,1.847,11.307,3.802,8.933,10.18c-3.728,10.013-21.907,3.533-26.175,1.847  c-0.554,0.919-1.22,1.769-1.972,2.522c-2.378,2.378-5.667,3.852-9.302,3.852c-3.63,0-6.915-1.473-9.293-3.852l-0.005-0.005  c-2.378-2.378-3.852-5.667-3.852-9.293c0-3.63,1.473-6.923,3.852-9.302c2.378-2.378,5.667-3.852,9.298-3.852  c3.626,0,6.914,1.473,9.293,3.852l0.005,0.005l0.005,0.005c2.378,2.378,3.852,5.667,3.852,9.293c0,1.621-0.295,3.178-0.831,4.614  c4.18,1.644,19.985,7.252,22.881-0.522c1.51-4.055-3.09-5.603-7.445-7.062c-1.686-0.564-3.343-1.123-4.688-1.796v-0.005  c-3.039-1.52-4.758-3.561-2.947-7.182c2.817-5.63,9.372-4.785,15.778-3.963c3.82,0.494,7.579,0.979,10.008-0.065l-0.06-0.056  c-12.068-12.068-1.445-20.475,0.684-21.962l-0.005-0.005l1.963-1.427v0.005H354.297z M305.809,196.039  c1.819,0,3.464,0.739,4.651,1.93c1.192,1.192,1.93,2.835,1.93,4.651c0,1.815-0.739,3.464-1.93,4.651  c-1.192,1.192-2.835,1.926-4.651,1.926c-1.815,0-3.464-0.739-4.651-1.926c-1.192-1.192-1.926-2.835-1.926-4.651  c0-1.819,0.739-3.464,1.926-4.651C302.349,196.778,303.993,196.039,305.809,196.039z M308.76,199.669  c-0.753-0.753-1.796-1.224-2.951-1.224c-1.15,0-2.194,0.471-2.951,1.224c-0.753,0.753-1.22,1.797-1.22,2.951  c0,1.15,0.466,2.194,1.22,2.951c0.753,0.753,1.801,1.22,2.951,1.22c1.15,0,2.194-0.466,2.951-1.22  c0.753-0.753,1.224-1.801,1.224-2.951C309.985,201.471,309.513,200.427,308.76,199.669z M313.407,195.018  c-1.94-1.94-4.628-3.141-7.598-3.141c-2.965,0-5.653,1.201-7.598,3.146c-1.94,1.944-3.146,4.628-3.146,7.598  c0,2.97,1.206,5.653,3.146,7.598c1.944,1.94,4.633,3.146,7.598,3.146c2.965,0,5.653-1.206,7.598-3.146  c1.944-1.944,3.146-4.628,3.146-7.598s-1.201-5.658-3.141-7.598L313.407,195.018z" fill="#fefefe"/><circle cx="131" cy="156" r="16" fill="#ff5b62"/><path d="M128.522,145.39h6.101v8.184h8.184v6.101h-8.184v8.184h-6.101v-8.184h-8.184v-6.101h8.184V145.39z" fill="#ffffff"/></g></defs><g fi:class="KUsePattern"><pattern id="pattern_L1_1" width="350" height="350" patternUnits="userSpaceOnUse"><use xlink:href="#L1_1" x="-350" y="-350"/><use xlink:href="#L1_1" x="0" y="-350"/><use xlink:href="#L1_1" x="350" y="-350"/><use xlink:href="#L1_1" x="-350" y="0"/><use xlink:href="#L1_1" x="0" y="0"/><use xlink:href="#L1_1" x="350" y="0"/><use xlink:href="#L1_1" x="-350" y="350"/><use xlink:href="#L1_1" x="0" y="350"/><use xlink:href="#L1_1" x="350" y="350"/></pattern><rect x="0" y="0" width="100%" height="100%" fill="url(#pattern_L1_1)"/></g><g fi:class="KUsePattern"><pattern id="pattern_L1_2" width="350" height="350" patternUnits="userSpaceOnUse"><use xlink:href="#L1_2" x="-350" y="-350"/><use xlink:href="#L1_2" x="0" y="-350"/><use xlink:href="#L1_2" x="350" y="-350"/><use xlink:href="#L1_2" x="-350" y="0"/><use xlink:href="#L1_2" x="0" y="0"/><use xlink:href="#L1_2" x="350" y="0"/><use xlink:href="#L1_2" x="-350" y="350"/><use xlink:href="#L1_2" x="0" y="350"/><use xlink:href="#L1_2" x="350" y="350"/></pattern><rect x="0" y="0" width="100%" height="100%" fill="url(#pattern_L1_2)"/></g><g fi:class="KUsePattern"><pattern id="pattern_L1_5" width="350" height="350" patternUnits="userSpaceOnUse"><use xlink:href="#L1_5" x="-350" y="-350"/><use xlink:href="#L1_5" x="0" y="-350"/><use xlink:href="#L1_5" x="350" y="-350"/><use xlink:href="#L1_5" x="-350" y="0"/><use xlink:href="#L1_5" x="0" y="0"/><use xlink:href="#L1_5" x="350" y="0"/><use xlink:href="#L1_5" x="-350" y="350"/><use xlink:href="#L1_5" x="0" y="350"/><use xlink:href="#L1_5" x="350" y="350"/></pattern><rect x="0" y="0" width="100%" height="100%" fill="url(#pattern_L1_5)"/></g><g fi:class="KUsePattern"><pattern id="pattern_L1_6" width="350" height="350" patternUnits="userSpaceOnUse"><use xlink:href="#L1_6" x="-350" y="-350"/><use xlink:href="#L1_6" x="0" y="-350"/><use xlink:href="#L1_6" x="350" y="-350"/><use xlink:href="#L1_6" x="-350" y="0"/><use xlink:href="#L1_6" x="0" y="0"/><use xlink:href="#L1_6" x="350" y="0"/><use xlink:href="#L1_6" x="-350" y="350"/><use xlink:href="#L1_6" x="0" y="350"/><use xlink:href="#L1_6" x="350" y="350"/></pattern><rect x="0" y="0" width="100%" height="100%" fill="url(#pattern_L1_6)"/></g><g fi:class="KUsePattern"><pattern id="pattern_L1_0" width="350" height="350" patternUnits="userSpaceOnUse"><use xlink:href="#L1_0" x="-350" y="-350"/><use xlink:href="#L1_0" x="0" y="-350"/><use xlink:href="#L1_0" x="350" y="-350"/><use xlink:href="#L1_0" x="-350" y="0"/><use xlink:href="#L1_0" x="0" y="0"/><use xlink:href="#L1_0" x="350" y="0"/><use xlink:href="#L1_0" x="-350" y="350"/><use xlink:href="#L1_0" x="0" y="350"/><use xlink:href="#L1_0" x="350" y="350"/></pattern><rect x="0" y="0" width="100%" height="100%" fill="url(#pattern_L1_0)"/></g></svg>