<?xml version="1.0" encoding="UTF-8" standalone="no"?>
<svg
   xmlns:dc="http://purl.org/dc/elements/1.1/"
   xmlns:cc="http://creativecommons.org/ns#"
   xmlns:rdf="http://www.w3.org/1999/02/22-rdf-syntax-ns#"
   xmlns:svg="http://www.w3.org/2000/svg"
   xmlns="http://www.w3.org/2000/svg"
   xmlns:sodipodi="http://sodipodi.sourceforge.net/DTD/sodipodi-0.dtd"
   xmlns:inkscape="http://www.inkscape.org/namespaces/inkscape"
   width="73.756821"
   height="74.210159"
   version="1.1"
   id="svg136"
   sodipodi:docname="support-ico.svg"
   inkscape:version="0.92.3 (2405546, 2018-03-11)">
  <metadata
     id="metadata140">
    <rdf:RDF>
      <cc:Work
         rdf:about="">
        <dc:format>image/svg+xml</dc:format>
        <dc:type
           rdf:resource="http://purl.org/dc/dcmitype/StillImage" />
        <dc:title></dc:title>
      </cc:Work>
    </rdf:RDF>
  </metadata>
  <sodipodi:namedview
     pagecolor="#ffffff"
     bordercolor="#666666"
     borderopacity="1"
     objecttolerance="10"
     gridtolerance="10"
     guidetolerance="10"
     inkscape:pageopacity="0"
     inkscape:pageshadow="2"
     inkscape:window-width="1330"
     inkscape:window-height="830"
     id="namedview138"
     showgrid="false"
     inkscape:zoom="1.3038674"
     inkscape:cx="36.5456"
     inkscape:cy="19.097662"
     inkscape:window-x="121"
     inkscape:window-y="60"
     inkscape:window-maximized="0"
     inkscape:current-layer="svg136" />
  <defs
     id="defs112">
    <clipPath
       id="clip_0">
      <rect
         x="-39.298462"
         y="-1376.1355"
         width="1432.08"
         height="1689.6555"
         id="rect109"
         style="clip-rule:evenodd" />
    </clipPath>
  </defs>
  <g
     clip-path="url(#clip_0)"
     id="g116"
     transform="translate(-48.4544,-35.3875)">
    <path
       transform="matrix(0.9945,0,0,0.9945,88.1664,57.0983)"
       d="M 0,17.1165 C 0,7.66311 7.66312,0 17.1165,0 c 9.4534,0 17.1166,7.66311 17.1166,17.1165 0,9.4524 -7.6632,17.1165 -17.1166,17.1165 C 7.66312,34.233 0,26.5689 0,17.1165 Z m 2.32949,-10e-4 c 0,8.1676 6.62046,14.788 14.78701,14.788 8.1666,0 14.7871,-6.6204 14.7871,-14.788 0,-8.16608 -6.6205,-14.78603 -14.7871,-14.78603 -8.16655,0 -14.78701,6.62045 -14.78701,14.78603 z"
       id="path114"
       inkscape:connector-curvature="0"
       style="fill:#ffffff;fill-rule:evenodd;stroke:none" />
  </g>
  <defs
     id="defs121">
    <clipPath
       id="clip_1">
      <rect
         x="-39.298462"
         y="-1376.1355"
         width="1432.08"
         height="1689.6555"
         id="rect118"
         style="clip-rule:evenodd" />
    </clipPath>
  </defs>
  <g
     clip-path="url(#clip_1)"
     id="g125"
     transform="translate(-48.4544,-35.3875)">
    <path
       transform="matrix(0.9945,0,0,0.9945,48.4544,35.3875)"
       d="m 48.7447,55.6929 c 0.2623,1.9363 0.4007,3.938 0.4007,5.9931 0,7.5458 -12.0437,11.6294 -24.0244,11.5976 C 13.1397,73.2519 1.37445,69.0043 1.37445,61.5833 1.37445,45.73 9.34416,33.0408 20.8401,30.4712 14.6697,28.6119 10.1739,22.8871 10.1739,16.1106 c 0,-8.28336 6.7156,-14.99896 14.9989,-14.99896 8.2839,0 14.999,6.7156 14.999,14.99896 0,6.7745 -4.4928,12.4983 -10.6607,14.3591 3.4129,0.7622 6.5218,2.4231 9.2128,4.7879 0.082,-0.4083 0.1792,-0.8106 0.2869,-1.2088 -1.8804,-1.5995 -3.9365,-2.8843 -6.124,-3.7921 5.0028,-2.7337 8.3966,-8.0432 8.3966,-14.1461 C 41.2834,7.21302 34.0704,0 25.1728,0 16.2747,0 9.06222,7.21302 9.06222,16.1106 c 0,6.1029 3.39378,11.4124 8.39618,14.1461 C 7.33032,34.4596 0,46.7077 0,61.17 c 0,17.9341 50.3456,17.9341 50.3456,0 0,-1.6624 -0.1012,-3.2936 -0.2879,-4.8886 -0.4466,-0.1802 -0.8846,-0.3761 -1.313,-0.5885 z"
       id="path123"
       inkscape:connector-curvature="0"
       style="fill:#ffffff;stroke:none" />
  </g>
  <defs
     id="defs130">
    <clipPath
       id="clip_2">
      <rect
         x="-39.298462"
         y="-1376.1355"
         width="1432.08"
         height="1689.6555"
         id="rect127"
         style="clip-rule:evenodd" />
    </clipPath>
  </defs>
  <g
     clip-path="url(#clip_2)"
     id="g134"
     transform="translate(-48.4544,-35.3875)">
    <path
       transform="matrix(0.9945,0,0,0.9945,97.7502,66.6819)"
       d="m 13.5259,2.94775 -0.9591,1.67148 c 0.2266,0.40226 0.4058,0.83272 0.5327,1.28685 l 1.8603,0.50396 V 8.54973 L 13.0995,9.05369 C 12.9731,9.50781 12.7934,9.93826 12.5668,10.34 l 0.9591,1.6725 -1.5129,1.5129 -1.6725,-0.9596 C 9.93826,12.7934 9.5073,12.9726 9.05369,13.0995 L 8.54972,14.9598 H 6.41003 L 5.90607,13.0995 C 5.45195,12.9726 5.02149,12.7929 4.61923,12.5668 L 2.94775,13.5254 1.43486,12.0125 2.39394,10.341 C 2.16638,9.93826 1.98665,9.5073 1.86028,9.05369 L 0,8.54972 V 6.41003 L 1.86028,5.90607 C 1.98664,5.45145 2.16688,5.02099 2.39394,4.61873 L 1.43486,2.94775 1.66494,2.71767 1.66443,2.71716 2.71766,1.66393 h 5.1e-4 L 2.94825,1.43385 4.61922,2.39294 C 5.02149,2.16588 5.45245,1.98664 5.90606,1.85977 L 6.41003,0 h 2.13968 l 0.50397,1.85977 c 0.45411,0.12737 0.88507,0.30711 1.28782,0.53367 l 1.671,-0.95909 0.2301,0.23008 0.3307,0.33128 z m -8.72091,4.5316 c 0,1.47715 1.19773,2.67485 2.67488,2.67485 1.47714,0 2.67483,-1.1977 2.67483,-2.67485 0,-1.47715 -1.19769,-2.67487 -2.67483,-2.67487 -1.47715,0 -2.67488,1.19772 -2.67488,2.67487 z"
       id="path132"
       inkscape:connector-curvature="0"
       style="fill:#ffffff;fill-rule:evenodd;stroke:none" />
  </g>
</svg>
